<svg width="32" height="32" viewBox="0 0 32 32" fill="none" xmlns="http://www.w3.org/2000/svg">
<path fill-rule="evenodd" clip-rule="evenodd" d="M26 16C26 21.5228 21.5228 26 16 26C10.4772 26 6 21.5228 6 16C6 10.4772 10.4772 6 16 6C21.5228 6 26 10.4772 26 16ZM24 16C24 20.4183 20.4183 24 16 24C14.2603 24 12.6503 23.4447 11.3376 22.5016L22.5016 11.3376C23.4447 12.6503 24 14.2603 24 16ZM9.74276 20.9852L20.9852 9.74276C19.6179 8.65199 17.8851 8 16 8C11.5817 8 8 11.5817 8 16C8 17.8851 8.65199 19.6179 9.74276 20.9852Z" fill="#212A34"/>
</svg>
