<svg width="32" height="32" viewBox="0 0 32 32" fill="none" xmlns="http://www.w3.org/2000/svg">
<path d="M20.001 13.34L11.5306 21.8819C11.3745 22.0394 11.1213 22.0394 10.9652 21.8819L10.1171 21.0267C9.96097 20.8692 9.96097 20.6139 10.1171 20.4565L18.4871 12.0159H14.4038C14.183 12.0159 14.004 11.8354 14.004 11.6127L14.004 10.4032C14.004 10.1805 14.183 10 14.4038 10L21.6002 10C21.821 10 22 10.1805 22 10.4032V17.6603C22 17.883 21.821 18.0635 21.6002 18.0635H20.4008C20.18 18.0635 20.001 17.883 20.001 17.6603V13.34Z" fill="#212A34"/>
</svg>
