<svg width="32" height="32" viewBox="0 0 32 32" fill="none" xmlns="http://www.w3.org/2000/svg">
<path fill-rule="evenodd" clip-rule="evenodd" d="M19.6925 6.11513C19.539 5.96126 19.2808 5.96168 19.1157 6.11607L8.13029 16.522C8.051 16.5962 8.00424 16.6966 8.00028 16.8013L8.00028 21.7426C7.99204 21.9605 8.16797 22.137 8.39323 22.1366L13.2821 22.1165C13.3903 22.1163 13.4956 22.0746 13.5749 22.0004L24.6729 11.6883C24.838 11.5339 24.8474 11.284 24.694 11.1301L19.6925 6.11513ZM19.0101 8.90689C19.1753 8.7525 19.4335 8.75208 19.587 8.90595L21.8098 11.1348C21.9633 11.2887 21.9539 11.5386 21.7887 11.693L20.5929 12.8112L17.8143 10.0251L19.0101 8.90689ZM16.3195 11.4229L19.0981 14.209L14.6136 18.4023L11.835 15.6162L16.3195 11.4229ZM10.3402 17.014L9.90236 17.4234L9.79683 20.2142L12.6809 20.2095L13.1188 19.8001L10.3402 17.014ZM8.40027 24.0634C8.17936 24.0634 8.00028 24.2368 8.00028 24.4507V25.6127C8.00028 25.8266 8.17936 26 8.40027 26H24.6C24.8209 26 25 25.8266 25 25.6127V24.4507C25 24.2368 24.8209 24.0634 24.6 24.0634H8.40027Z" fill="#212A34"/>
</svg>
