<svg width="32" height="32" viewBox="0 0 32 32" fill="none" xmlns="http://www.w3.org/2000/svg">
<path fill-rule="evenodd" clip-rule="evenodd" d="M18.3036 13.7821C18.3036 16.2793 16.2793 18.3036 13.7821 18.3036C11.285 18.3036 9.26071 16.2793 9.26071 13.7821C9.26071 11.285 11.285 9.26071 13.7821 9.26071C16.2793 9.26071 18.3036 11.285 18.3036 13.7821ZM17.7119 19.3104C16.6032 20.0999 15.2469 20.5643 13.7821 20.5643C10.0365 20.5643 7 17.5278 7 13.7821C7 10.0365 10.0365 7 13.7821 7C17.5278 7 20.5643 10.0365 20.5643 13.7821C20.5643 15.2469 20.0999 16.6032 19.3104 17.7119L24.9103 23.3117C25.0515 23.453 25.0229 23.7106 24.8463 23.8872L23.8872 24.8463C23.7106 25.0229 23.453 25.0515 23.3117 24.9103L17.7119 19.3104Z" fill="#212A34"/>
</svg>
