<svg width="32" height="32" viewBox="0 0 32 32" fill="none" xmlns="http://www.w3.org/2000/svg">
<path fill-rule="evenodd" clip-rule="evenodd" d="M13 6.39024C13 6.17472 13.1791 6 13.4 6H18.6C18.8209 6 19 6.17472 19 6.39024V7.56098C19 7.7765 18.8209 7.95122 18.6 7.95122H13.4C13.1791 7.95122 13 7.7765 13 7.56098V6.39024ZM11.7143 17.0105C11.7143 14.1192 13.6702 11.8537 16 11.8537C18.3298 11.8537 20.2857 14.1192 20.2857 17.0105V20.6341H11.7143V17.0105ZM22 17.0105V20.6341H23.6C23.8209 20.6341 24 20.8089 24 21.0244V22.1951C24 22.4106 23.8209 22.5854 23.6 22.5854H8.4C8.17909 22.5854 8 22.4106 8 22.1951V21.0244C8 20.8089 8.17909 20.6341 8.4 20.6341H10V17.0105C10 13.1281 12.6492 9.90244 16 9.90244C19.3508 9.90244 22 13.1281 22 17.0105ZM16.0002 24.7317C15.3375 24.7317 14.8002 24.2076 14.8002 23.561H13.2002C13.2002 25.0697 14.4538 26 16.0002 26C17.5466 26 18.8002 25.0697 18.8002 23.561H17.2002C17.2002 24.2076 16.6629 24.7317 16.0002 24.7317Z" fill="#212A34"/>
</svg>
