<svg width="32" height="32" viewBox="0 0 32 32" fill="none" xmlns="http://www.w3.org/2000/svg">
<path fill-rule="evenodd" clip-rule="evenodd" d="M19.0772 6.58891C19.4766 6.33402 20 6.62088 20 7.09469V24.9053C20 25.3791 19.4766 25.666 19.0772 25.4111L10.5985 20H6.6C6.26863 20 6 19.7314 6 19.4V12.6C6 12.2686 6.26863 12 6.6 12H10.5985L19.0772 6.58891ZM10 14V18H8V14H10ZM18 22L12 18.382V13.618L18 9.99999V22Z" fill="#212A34"/>
<path d="M22.9182 12.4602C23.7586 13.3809 24.2734 14.627 24.2734 16C24.2734 17.373 23.7586 18.6191 22.9182 19.5397C22.7718 19.7002 22.7571 19.9532 22.8984 20.1185L23.5381 20.8671C23.6794 21.0325 23.9229 21.0473 24.0724 20.89C25.2627 19.6375 26 17.9084 26 16C26 14.0916 25.2627 12.3625 24.0724 11.1099C23.9229 10.9526 23.6794 10.9675 23.5381 11.1329L22.8984 11.8814C22.7571 12.0468 22.7718 12.2998 22.9182 12.4602Z" fill="#212A34"/>
</svg>
