<svg width="32" height="32" viewBox="0 0 32 32" fill="none" xmlns="http://www.w3.org/2000/svg">
<path d="M21.6901 13.9172L16 8.29233L10.3099 13.9172C10.1983 14.0276 10.0143 14.0276 9.9027 13.9172L9.08093 13.1049C8.97302 12.9982 8.97302 12.828 9.08093 12.7213L15.7964 6.08277C15.908 5.97241 16.092 5.97241 16.2036 6.08277L22.9191 12.7213C23.027 12.828 23.027 12.9982 22.9191 13.1049L22.0973 13.9172C21.9857 14.0276 21.8018 14.0276 21.6901 13.9172Z" fill="#212A34"/>
<path d="M10.3099 18.0828L16 23.7077L21.6901 18.0828C21.8017 17.9724 21.9857 17.9724 22.0973 18.0828L22.9191 18.8951C23.027 19.0018 23.027 19.172 22.9191 19.2787L16.2036 25.9172C16.092 26.0276 15.908 26.0276 15.7964 25.9172L9.08093 19.2787C8.97302 19.172 8.97302 19.0018 9.08093 18.8951L9.9027 18.0828C10.0143 17.9724 10.1983 17.9724 10.3099 18.0828Z" fill="#212A34"/>
</svg>
