<svg width="32" height="32" viewBox="0 0 32 32" fill="none" xmlns="http://www.w3.org/2000/svg">
<path fill-rule="evenodd" clip-rule="evenodd" d="M6.4 6C6.17909 6 6 6.17909 6 6.4V25.6C6 25.8209 6.17909 26 6.4 26H19.6C19.8209 26 20 25.8209 20 25.6V20.4C20 20.1791 19.8209 20 19.6 20H18.4C18.1791 20 18 20.1791 18 20.4V24H8V8H18V11.6C18 11.8209 18.1791 12 18.4 12H19.6C19.8209 12 20 11.8209 20 11.6V6.4C20 6.17909 19.8209 6 19.6 6H6.4ZM15 16.6C15 16.8209 15.1791 17 15.4 17H22.541L21.1099 18.4975C20.9634 18.6508 20.9634 18.8993 21.1099 19.0525L21.9055 19.8851C22.0519 20.0383 22.2894 20.0383 22.4359 19.8851L24.8227 17.3875L25.8893 16.2784C26.0369 16.1249 26.0369 15.8751 25.8893 15.7216L24.8227 14.6125L22.4359 12.1149C22.2894 11.9617 22.0519 11.9617 21.9055 12.1149L21.1099 12.9475C20.9634 13.1007 20.9634 13.3492 21.1099 13.5025L22.541 15H15.4C15.1791 15 15 15.1791 15 15.4V16.6Z" fill="#212A34"/>
</svg>
