<svg width="32" height="32" viewBox="0 0 32 32" fill="none" xmlns="http://www.w3.org/2000/svg">
<path d="M8.05413 10.0391C7.48366 8.41783 7.01011 7.07075 7.00181 7.04565C6.98761 7.00279 7.03869 7 7.83475 7H8.68285L8.71903 7.12391C8.73892 7.19208 9.01878 8.16541 9.34089 9.28691C9.66303 10.4084 9.93091 11.3217 9.93621 11.3164C9.94151 11.3112 10.2245 10.3407 10.565 9.15995L11.1843 7.01304L12.0398 7.00616C12.8465 6.99966 12.8946 7.0019 12.8824 7.04529C12.8697 7.09052 10.8222 12.8649 10.787 12.9547C10.7702 12.9975 10.711 13.0002 9.93018 12.9938L9.09134 12.987L8.05413 10.0391Z" fill="#212A34"/>
<path fill-rule="evenodd" clip-rule="evenodd" d="M13.9331 13V7L15.3491 7.0001C16.8487 7.00021 17.0258 7.01137 17.4097 7.12989C18.1558 7.36021 18.6542 7.84637 18.8426 8.52757C18.8864 8.68579 18.8999 8.80571 18.8998 9.03478C18.8995 9.58824 18.7377 9.9747 18.3545 10.3372C18.05 10.6253 17.7497 10.774 17.2349 10.8915C17.0358 10.9369 16.8817 10.947 16.2235 10.958L15.447 10.9709V13H13.9331ZM17.2714 8.61739C17.1741 8.40987 17.0845 8.31713 16.8881 8.2204L16.7142 8.13478L15.447 8.11837V9.8475L16.093 9.8368C16.4932 9.83017 16.7755 9.81426 16.835 9.79496C17.0224 9.73415 17.1762 9.60614 17.2604 9.44088C17.3328 9.29883 17.3393 9.26458 17.339 9.02349C17.3387 8.79622 17.3296 8.74157 17.2714 8.61739Z" fill="#212A34"/>
<path d="M19.7276 13V7L21.2545 7.00128L23.4731 10.716L23.4865 7H25V13L23.4731 12.9985L21.2545 9.29294L21.2411 13H19.7276Z" fill="#212A34"/>
<path fill-rule="evenodd" clip-rule="evenodd" d="M13.0593 21.4C12.626 22.9017 11.2412 24 9.6 24C7.61177 24 6 22.3882 6 20.4C6 18.4118 7.61177 16.8 9.6 16.8C11.2412 16.8 12.6259 17.8983 13.0593 19.4H18.9405C19.3739 17.8983 20.7586 16.8 22.3998 16.8C24.388 16.8 25.9998 18.4118 25.9998 20.4C25.9998 22.3882 24.388 24 22.3998 24C20.7586 24 19.3738 22.9017 18.9405 21.4H13.0593ZM11.4 20.4C11.4 21.3941 10.5941 22.2 9.6 22.2C8.60589 22.2 7.8 21.3941 7.8 20.4C7.8 19.4059 8.60589 18.6 9.6 18.6C10.5941 18.6 11.4 19.4059 11.4 20.4ZM22.3998 22.2C23.3939 22.2 24.1998 21.3941 24.1998 20.4C24.1998 19.4059 23.3939 18.6 22.3998 18.6C21.4057 18.6 20.5998 19.4059 20.5998 20.4C20.5998 21.3941 21.4057 22.2 22.3998 22.2Z" fill="#212A34"/>
</svg>
