<svg width="32" height="32" viewBox="0 0 32 32" fill="none" xmlns="http://www.w3.org/2000/svg">
<path d="M21.2326 9.91885C21.0764 9.76264 20.8231 9.76264 20.6669 9.91885L16.0001 14.5856L11.3334 9.91886C11.1772 9.76265 10.9239 9.76265 10.7677 9.91886L9.91915 10.7674C9.76294 10.9236 9.76294 11.1769 9.91915 11.3331L14.5859 15.9999L9.91892 20.6669C9.76271 20.8231 9.76271 21.0764 9.91892 21.2326L10.7674 22.0811C10.9237 22.2373 11.1769 22.2373 11.3331 22.0811L16.0001 17.4141L20.6672 22.0811C20.8234 22.2373 21.0766 22.2373 21.2329 22.0811L22.0814 21.2326C22.2376 21.0764 22.2376 20.8231 22.0814 20.6669L17.4144 15.9999L22.0812 11.3331C22.2374 11.1769 22.2374 10.9236 22.0812 10.7674L21.2326 9.91885Z" fill="#212A34"/>
</svg>
