<svg width="32" height="32" viewBox="0 0 32 32" fill="none" xmlns="http://www.w3.org/2000/svg">
<path d="M15 10.4C15 10.1791 15.1791 10 15.4 10H16.6C16.8209 10 17 10.1791 17 10.4V17.6C17 17.8209 16.8209 18 16.6 18H15.4C15.1791 18 15 17.8209 15 17.6V10.4Z" fill="#212A34"/>
<path d="M15.4 20C15.1791 20 15 20.1791 15 20.4V21.6C15 21.8209 15.1791 22 15.4 22H16.6C16.8209 22 17 21.8209 17 21.6V20.4C17 20.1791 16.8209 20 16.6 20H15.4Z" fill="#212A34"/>
<path fill-rule="evenodd" clip-rule="evenodd" d="M16 6C10.4772 6 6 10.4772 6 16C6 21.5228 10.4772 26 16 26C21.5228 26 26 21.5228 26 16C26 10.4772 21.5228 6 16 6ZM8 16C8 11.5817 11.5817 8 16 8C20.4183 8 24 11.5817 24 16C24 20.4183 20.4183 24 16 24C11.5817 24 8 20.4183 8 16Z" fill="#212A34"/>
</svg>
