<svg width="32" height="32" viewBox="0 0 32 32" fill="none" xmlns="http://www.w3.org/2000/svg">
<path d="M15 10.4C15 10.1791 15.1791 10 15.4 10H16.6C16.8209 10 17 10.1791 17 10.4V17.541L18.4975 16.1099C18.6508 15.9634 18.8993 15.9634 19.0525 16.1099L19.8851 16.9055C20.0383 17.0519 20.0383 17.2894 19.8851 17.4359L17.3875 19.8227L16.2784 20.8893C16.1249 21.0369 15.8751 21.0369 15.7216 20.8893L14.6125 19.8227L12.1149 17.4359C11.9617 17.2894 11.9617 17.0519 12.1149 16.9055L12.9475 16.1099C13.1007 15.9634 13.3492 15.9634 13.5025 16.1099L15 17.541V10.4Z" fill="#212A34"/>
<path fill-rule="evenodd" clip-rule="evenodd" d="M16 6C10.4772 6 6 10.4772 6 16C6 21.5228 10.4772 26 16 26C21.5228 26 26 21.5228 26 16C26 10.4772 21.5228 6 16 6ZM8 16C8 11.5817 11.5817 8 16 8C20.4183 8 24 11.5817 24 16C24 20.4183 20.4183 24 16 24C11.5817 24 8 20.4183 8 16Z" fill="#212A34"/>
</svg>
