<svg width="32" height="32" viewBox="0 0 32 32" fill="none" xmlns="http://www.w3.org/2000/svg">
<path d="M14.4682 22C14.6035 22 14.7337 21.9448 14.8292 21.8459L20.7756 15.7189C21.0748 15.4111 21.0748 14.9114 20.7756 14.6032L20.4146 14.2312C20.1159 13.9229 19.6309 13.9229 19.3316 14.2312L14.4682 19.242L12.6684 17.3875C12.3692 17.0793 11.8846 17.0793 11.5854 17.3875L11.2244 17.7595C10.9252 18.0672 10.9252 18.567 11.2244 18.8753L14.1072 21.8459C14.2027 21.9448 14.3329 22 14.4682 22Z" fill="#212A34"/>
<path fill-rule="evenodd" clip-rule="evenodd" d="M13 6.6C13 6.26863 13.2686 6 13.6 6H18.4C18.7314 6 19 6.26863 19 6.6V8H23.4C23.7314 8 24 8.26863 24 8.6V25.4C24 25.7314 23.7314 26 23.4 26H8.6C8.26863 26 8 25.7314 8 25.4V8.6C8 8.26863 8.26863 8 8.6 8H13V6.6ZM14.8 11.2V7.8H17.2V11.2H14.8ZM19 10V12.4C19 12.7314 18.7314 13 18.4 13H13.6C13.2686 13 13 12.7314 13 12.4V10H10V24H22V10H19Z" fill="#212A34"/>
</svg>
