<svg width="32" height="32" viewBox="0 0 32 32" fill="none" xmlns="http://www.w3.org/2000/svg">
<path d="M13.4 6C13.1791 6 13 6.17909 13 6.4V7.6C13 7.82091 13.1791 8 13.4 8H18.6C18.8209 8 19 7.82091 19 7.6V6.4C19 6.17909 18.8209 6 18.6 6H13.4Z" fill="#212A34"/>
<path d="M13.0862 15.7106C12.9713 15.8255 12.9713 16.0119 13.0862 16.1268L14.9594 18L13.0862 19.8732C12.9713 19.9881 12.9713 20.1745 13.0862 20.2894L13.7106 20.9138C13.8255 21.0287 14.0119 21.0287 14.1268 20.9138L16 19.0406L17.8732 20.9138C17.9881 21.0287 18.1745 21.0287 18.2894 20.9138L18.9138 20.2894C19.0287 20.1745 19.0287 19.9881 18.9138 19.8732L17.0406 18L18.9138 16.1268C19.0287 16.0119 19.0287 15.8255 18.9138 15.7106L18.2894 15.0862C18.1745 14.9713 17.9881 14.9713 17.8732 15.0862L16 16.9594L14.1268 15.0862C14.0119 14.9713 13.8255 14.9713 13.7106 15.0862L13.0862 15.7106Z" fill="#212A34"/>
<path fill-rule="evenodd" clip-rule="evenodd" d="M8 10.4C8 10.1791 8.17909 10 8.4 10H23.6C23.8209 10 24 10.1791 24 10.4V11.6C24 11.8209 23.8209 12 23.6 12H22V25.6C22 25.8209 21.8209 26 21.6 26H10.4C10.1791 26 10 25.8209 10 25.6V12H8.4C8.17909 12 8 11.8209 8 11.6V10.4ZM20.2857 12H11.7143V24.1176H20.2857V12Z" fill="#212A34"/>
</svg>
