<svg width="32" height="32" viewBox="0 0 32 32" fill="none" xmlns="http://www.w3.org/2000/svg">
<path fill-rule="evenodd" clip-rule="evenodd" d="M22.3636 7.81818C21.3595 7.81818 20.5455 8.63221 20.5455 9.63636C20.5455 10.6405 21.3595 11.4545 22.3636 11.4545C23.3678 11.4545 24.1818 10.6405 24.1818 9.63636C24.1818 8.63221 23.3678 7.81818 22.3636 7.81818ZM18.7273 9.63636C18.7273 7.62806 20.3553 6 22.3636 6C24.3719 6 26 7.62806 26 9.63636C26 11.6447 24.3719 13.2727 22.3636 13.2727C21.3314 13.2727 20.3996 12.8426 19.7377 12.1518L13.1547 15.0776C13.2317 15.3722 13.2727 15.6813 13.2727 16C13.2727 16.348 13.2238 16.6847 13.1325 17.0034L19.2879 20.423C19.9321 19.404 21.0689 18.7273 22.3636 18.7273C24.3719 18.7273 26 20.3553 26 22.3636C26 24.3719 24.3719 26 22.3636 26C20.3553 26 18.7273 24.3719 18.7273 22.3636C18.7273 22.3067 18.7286 22.25 18.7312 22.1936L12.2088 18.5701C11.5507 19.2289 10.6411 19.6364 9.63636 19.6364C7.62806 19.6364 6 18.0083 6 16C6 13.9917 7.62806 12.3636 9.63636 12.3636C10.6686 12.3636 11.6004 12.7938 12.2623 13.4845L18.8453 10.5588C18.7683 10.2642 18.7273 9.95507 18.7273 9.63636ZM7.81818 16C7.81818 14.9958 8.63221 14.1818 9.63636 14.1818C10.6405 14.1818 11.4545 14.9958 11.4545 16C11.4545 17.0042 10.6405 17.8182 9.63636 17.8182C8.63221 17.8182 7.81818 17.0042 7.81818 16ZM20.5455 22.3636C20.5455 21.3595 21.3595 20.5455 22.3636 20.5455C23.3678 20.5455 24.1818 21.3595 24.1818 22.3636C24.1818 23.3678 23.3678 24.1818 22.3636 24.1818C21.3595 24.1818 20.5455 23.3678 20.5455 22.3636Z" fill="#212A34"/>
</svg>
