<svg width="20" height="20" viewBox="0 0 20 20" fill="none" xmlns="http://www.w3.org/2000/svg">
<path d="M0 10C0 4.47715 4.47715 0 10 0C15.5228 0 20 4.47715 20 10C20 15.5228 15.5228 20 10 20C4.47715 20 0 15.5228 0 10Z" fill="#0091DA"/>
<path d="M4.95117 10.5039L5.36133 6.89062H9.3457V8.06738H6.51855L6.34277 9.5957C6.67806 9.41667 7.03451 9.32715 7.41211 9.32715C8.08919 9.32715 8.61979 9.53711 9.00391 9.95703C9.38802 10.377 9.58008 10.9645 9.58008 11.7197C9.58008 12.1787 9.48242 12.5905 9.28711 12.9551C9.09505 13.3164 8.81836 13.598 8.45703 13.7998C8.0957 13.9984 7.66927 14.0977 7.17773 14.0977C6.74805 14.0977 6.34928 14.0114 5.98145 13.8389C5.61361 13.6631 5.32227 13.4173 5.10742 13.1016C4.89583 12.7858 4.78353 12.4261 4.77051 12.0225H6.16699C6.19629 12.3187 6.29883 12.5498 6.47461 12.7158C6.65365 12.8786 6.88639 12.96 7.17285 12.96C7.49186 12.96 7.73763 12.846 7.91016 12.6182C8.08268 12.387 8.16895 12.0615 8.16895 11.6416C8.16895 11.238 8.06966 10.9287 7.87109 10.7139C7.67253 10.499 7.39095 10.3916 7.02637 10.3916C6.69108 10.3916 6.41927 10.4795 6.21094 10.6553L6.07422 10.7822L4.95117 10.5039ZM10.6934 10.5039L11.1035 6.89062H15.0879V8.06738H12.2607L12.085 9.5957C12.4202 9.41667 12.7767 9.32715 13.1543 9.32715C13.8314 9.32715 14.362 9.53711 14.7461 9.95703C15.1302 10.377 15.3223 10.9645 15.3223 11.7197C15.3223 12.1787 15.2246 12.5905 15.0293 12.9551C14.8372 13.3164 14.5605 13.598 14.1992 13.7998C13.8379 13.9984 13.4115 14.0977 12.9199 14.0977C12.4902 14.0977 12.0915 14.0114 11.7236 13.8389C11.3558 13.6631 11.0645 13.4173 10.8496 13.1016C10.638 12.7858 10.5257 12.4261 10.5127 12.0225H11.9092C11.9385 12.3187 12.041 12.5498 12.2168 12.7158C12.3958 12.8786 12.6286 12.96 12.915 12.96C13.234 12.96 13.4798 12.846 13.6523 12.6182C13.8249 12.387 13.9111 12.0615 13.9111 11.6416C13.9111 11.238 13.8118 10.9287 13.6133 10.7139C13.4147 10.499 13.1331 10.3916 12.7686 10.3916C12.4333 10.3916 12.1615 10.4795 11.9531 10.6553L11.8164 10.7822L10.6934 10.5039Z" fill="white"/>
</svg>
