<svg width="32" height="32" viewBox="0 0 32 32" fill="none" xmlns="http://www.w3.org/2000/svg">
<path d="M8 16.6C8 16.821 8.17909 17 8.4 17L14.9998 17L14.9998 23.5999C14.9998 23.8208 15.1789 23.9999 15.3998 23.9999H16.5998C16.8208 23.9999 16.9998 23.8208 16.9998 23.5999V17L23.6 17C23.8209 17 24 16.821 24 16.6V15.4C24 15.1791 23.8209 15 23.6 15L16.9998 15V8.39988C16.9998 8.17896 16.8207 7.99988 16.5998 7.99988H15.3998C15.1789 7.99988 14.9998 8.17896 14.9998 8.39988L14.9998 15L8.4 15C8.17909 15 8 15.1791 8 15.4V16.6Z" fill="#212A34"/>
</svg>
