<svg width="32" height="32" viewBox="0 0 32 32" fill="none" xmlns="http://www.w3.org/2000/svg">
<path fill-rule="evenodd" clip-rule="evenodd" d="M7 7.36C7 7.16118 7.16118 7 7.36 7H12.94C13.1388 7 13.3 7.16118 13.3 7.36V8.44C13.3 8.63882 13.1388 8.8 12.94 8.8H8.8V12.94C8.8 13.1388 8.63882 13.3 8.44 13.3H7.36C7.16118 13.3 7 13.1388 7 12.94V7.36ZM23.2 8.8H19.06C18.8612 8.8 18.7 8.63882 18.7 8.44V7.36C18.7 7.16118 18.8612 7 19.06 7H24.64C24.8388 7 25 7.16118 25 7.36V12.94C25 13.1388 24.8388 13.3 24.64 13.3H23.56C23.3612 13.3 23.2 13.1388 23.2 12.94V8.8ZM8.8 23.2V19.06C8.8 18.8612 8.63882 18.7 8.44 18.7H7.36C7.16118 18.7 7 18.8612 7 19.06V24.64C7 24.8388 7.16118 25 7.36 25H12.94C13.1388 25 13.3 24.8388 13.3 24.64V23.56C13.3 23.3612 13.1388 23.2 12.94 23.2H8.8ZM23.2 23.2V19.06C23.2 18.8612 23.3612 18.7 23.56 18.7H24.64C24.8388 18.7 25 18.8612 25 19.06V24.64C25 24.8388 24.8388 25 24.64 25H19.06C18.8612 25 18.7 24.8388 18.7 24.64V23.56C18.7 23.3612 18.8612 23.2 19.06 23.2H23.2Z" fill="#212A34"/>
</svg>
