<svg width="32" height="32" viewBox="0 0 32 32" fill="none" xmlns="http://www.w3.org/2000/svg">
<path fill-rule="evenodd" clip-rule="evenodd" d="M11.4 6C11.1791 6 11 6.17909 11 6.4V8H6.6C6.26863 8 6 8.26863 6 8.6V23.4C6 23.7314 6.26863 24 6.6 24H25.4C25.7314 24 26 23.7314 26 23.4V8.6C26 8.26863 25.7314 8 25.4 8H21V6.4C21 6.17909 20.8209 6 20.6 6H19.4C19.1791 6 19 6.17909 19 6.4V8H13V6.4C13 6.17909 12.8209 6 12.6 6H11.4ZM19 11.6V10H13V11.6C13 11.8209 12.8209 12 12.6 12H11.4C11.1791 12 11 11.8209 11 11.6V10H8V14L24 14V10H21V11.6C21 11.8209 20.8209 12 20.6 12H19.4C19.1791 12 19 11.8209 19 11.6ZM24 16L8 16V22H24V16Z" fill="#212A34"/>
</svg>
