<svg width="32" height="32" viewBox="0 0 32 32" fill="none" xmlns="http://www.w3.org/2000/svg">
<path d="M17 21.6C17 21.8209 16.8209 22 16.6 22H15.4C15.1791 22 15 21.8209 15 21.6V14.4C15 14.1791 15.1791 14 15.4 14H16.6C16.8209 14 17 14.1791 17 14.4V21.6Z" fill="#212A34"/>
<path d="M16.6 12C16.8209 12 17 11.8209 17 11.6V10.4C17 10.1791 16.8209 10 16.6 10H15.4C15.1791 10 15 10.1791 15 10.4V11.6C15 11.8209 15.1791 12 15.4 12H16.6Z" fill="#212A34"/>
<path fill-rule="evenodd" clip-rule="evenodd" d="M16 26C21.5228 26 26 21.5228 26 16C26 10.4772 21.5228 6 16 6C10.4772 6 6 10.4772 6 16C6 21.5228 10.4772 26 16 26ZM24 16C24 20.4183 20.4183 24 16 24C11.5817 24 8 20.4183 8 16C8 11.5817 11.5817 8 16 8C20.4183 8 24 11.5817 24 16Z" fill="#212A34"/>
</svg>
