<svg width="32" height="32" viewBox="0 0 32 32" fill="none" xmlns="http://www.w3.org/2000/svg">
<path d="M25.6 9C25.8209 9 26 9.17909 26 9.4V10.6C26 10.8209 25.8209 11 25.6 11H11V20H9V9.6C9 9.26863 9.26863 9 9.6 9H25.6Z" fill="#212A34"/>
<path d="M21 21L21 12H23V22.4C23 22.7314 22.7314 23 22.4 23H6.4C6.17909 23 6 22.8209 6 22.6V21.4C6 21.1791 6.17909 21 6.4 21L21 21Z" fill="#212A34"/>
<path d="M21 8H23V6.4C23 6.17909 22.8209 6 22.6 6H21.4C21.1791 6 21 6.17909 21 6.4V8Z" fill="#212A34"/>
<path d="M9.4 26C9.17909 26 9 25.8209 9 25.6V24H11V25.6C11 25.8209 10.8209 26 10.6 26H9.4Z" fill="#212A34"/>
</svg>
