<svg width="32" height="32" viewBox="0 0 32 32" fill="none" xmlns="http://www.w3.org/2000/svg">
<path fill-rule="evenodd" clip-rule="evenodd" d="M21 17C21 19.7614 18.7614 22 16 22C13.2386 22 11 19.7614 11 17C11 14.2386 13.2386 12 16 12C18.7614 12 21 14.2386 21 17ZM19 17C19 18.6569 17.6569 20 16 20C14.3431 20 13 18.6569 13 17C13 15.3431 14.3431 14 16 14C17.6569 14 19 15.3431 19 17Z" fill="#212A34"/>
<path fill-rule="evenodd" clip-rule="evenodd" d="M6.6 10H11L11.8632 7.41026C11.9449 7.16526 12.1742 7 12.4325 7H19.5675C19.8258 7 20.0551 7.16526 20.1368 7.41026L21 10H25.4C25.7314 10 26 10.2686 26 10.6V24.4C26 24.7314 25.7314 25 25.4 25H6.6C6.26863 25 6 24.7314 6 24.4V10.6C6 10.2686 6.26863 10 6.6 10ZM12.5783 11.5897L13.4415 9H18.5585L19.4217 11.5897C19.5034 11.8347 19.7327 12 19.9909 12H24V23H8V12H12.0091C12.2673 12 12.4966 11.8347 12.5783 11.5897Z" fill="#212A34"/>
</svg>
