<svg width="32" height="32" viewBox="0 0 32 32" fill="none" xmlns="http://www.w3.org/2000/svg">
<path fill-rule="evenodd" clip-rule="evenodd" d="M6.4 12H16.126C16.5701 13.7252 18.1362 15 20 15C21.8638 15 23.4299 13.7252 23.874 12H25.6C25.8209 12 26 11.8209 26 11.6V10.4C26 10.1791 25.8209 10 25.6 10H23.874C23.4299 8.27477 21.8638 7 20 7C18.1362 7 16.5701 8.27477 16.126 10H6.4C6.17909 10 6 10.1791 6 10.4V11.6C6 11.8209 6.17909 12 6.4 12ZM18 11C18 10.6548 18.0874 10.3301 18.2414 10.0467C18.2499 10.031 18.2586 10.0154 18.2676 10C18.6134 9.4022 19.2597 9 20 9C20.7403 9 21.3866 9.4022 21.7324 10C21.9026 10.2942 22 10.6357 22 11C22 11.3452 21.9126 11.6699 21.7586 11.9533C21.7501 11.969 21.7414 11.9846 21.7324 12C21.3866 12.5978 20.7403 13 20 13C19.2597 13 18.6134 12.5978 18.2676 12C18.0974 11.7058 18 11.3643 18 11Z" fill="#212A34"/>
<path fill-rule="evenodd" clip-rule="evenodd" d="M15.874 20C15.4299 18.2748 13.8638 17 12 17C10.1362 17 8.57006 18.2748 8.12602 20H6.4C6.17909 20 6 20.1791 6 20.4V21.6C6 21.8209 6.17909 22 6.4 22H8.12602C8.57006 23.7252 10.1362 25 12 25C13.8638 25 15.4299 23.7252 15.874 22H25.6C25.8209 22 26 21.8209 26 21.6V20.4C26 20.1791 25.8209 20 25.6 20H15.874ZM10.2676 22C10.6134 22.5978 11.2597 23 12 23C12.7403 23 13.3866 22.5978 13.7324 22C13.9026 21.7058 14 21.3643 14 21C14 20.6357 13.9026 20.2942 13.7324 20C13.3866 19.4022 12.7403 19 12 19C11.2597 19 10.6134 19.4022 10.2676 20C10.0974 20.2942 10 20.6357 10 21C10 21.3643 10.0974 21.7058 10.2676 22Z" fill="#212A34"/>
</svg>
