<svg width="32" height="32" viewBox="0 0 32 32" fill="none" xmlns="http://www.w3.org/2000/svg">
<path fill-rule="evenodd" clip-rule="evenodd" d="M16 14.25C14.4812 14.25 13.25 15.4812 13.25 17C13.25 18.166 13.9757 19.1625 15 19.5625V21.6C15 21.8209 15.1791 22 15.4 22H16.6C16.8209 22 17 21.8209 17 21.6V19.5625C18.0243 19.1625 18.75 18.166 18.75 17C18.75 15.4812 17.5188 14.25 16 14.25ZM14.75 17C14.75 16.3096 15.3096 15.75 16 15.75C16.6904 15.75 17.25 16.3096 17.25 17C17.25 17.6904 16.6904 18.25 16 18.25C15.3096 18.25 14.75 17.6904 14.75 17Z" fill="#212A34"/>
<path fill-rule="evenodd" clip-rule="evenodd" d="M16 6C13.2386 6 11 8.23858 11 11H8.6C8.26863 11 8 11.2686 8 11.6V25.4C8 25.7314 8.26863 26 8.6 26H23.4C23.7314 26 24 25.7314 24 25.4V11.6C24 11.2686 23.7314 11 23.4 11H21C21 8.23858 18.7614 6 16 6ZM16 8C14.3431 8 13 9.34315 13 11H19C19 9.34315 17.6569 8 16 8ZM10 24V13H22V24H10Z" fill="#212A34"/>
</svg>
