<svg width="32" height="32" viewBox="0 0 32 32" fill="none" xmlns="http://www.w3.org/2000/svg">
<path d="M17 15H22.541L21.1099 13.5025C20.9634 13.3492 20.9634 13.1007 21.1099 12.9475L21.9055 12.1149C22.0519 11.9617 22.2894 11.9617 22.4359 12.1149L24.8227 14.6125L25.8893 15.7216C26.0369 15.8751 26.0369 16.1249 25.8893 16.2784L24.8227 17.3875L22.4359 19.8851C22.2894 20.0383 22.0519 20.0383 21.9055 19.8851L21.1099 19.0525C20.9634 18.8993 20.9634 18.6508 21.1099 18.4975L22.541 17H17V22.541L18.4975 21.1099C18.6508 20.9634 18.8993 20.9634 19.0525 21.1099L19.8851 21.9055C20.0383 22.0519 20.0383 22.2894 19.8851 22.4359L17.3875 24.8227L16.2784 25.8893C16.1249 26.0369 15.8751 26.0369 15.7216 25.8893L14.6125 24.8227L12.1149 22.4359C11.9617 22.2894 11.9617 22.0519 12.1149 21.9055L12.9475 21.1099C13.1007 20.9634 13.3492 20.9634 13.5025 21.1099L15 22.541V17H9.45899L10.8901 18.4975C11.0366 18.6508 11.0366 18.8993 10.8901 19.0525L10.0945 19.8851C9.94807 20.0383 9.7106 20.0383 9.56413 19.8851L7.17729 17.3875L6.11068 16.2784C5.96311 16.1249 5.96311 15.8751 6.11068 15.7216L7.17729 14.6125L9.56413 12.1149C9.7106 11.9617 9.94807 11.9617 10.0945 12.1149L10.8901 12.9475C11.0366 13.1007 11.0366 13.3492 10.8901 13.5025L9.45899 15L15 15V9.45899L13.5025 10.8901C13.3492 11.0366 13.1007 11.0366 12.9475 10.8901L12.1149 10.0945C11.9617 9.94807 11.9617 9.7106 12.1149 9.56413L14.6125 7.17729L15.7216 6.11068C15.8751 5.96311 16.1249 5.96311 16.2784 6.11068L17.3875 7.17729L19.8851 9.56413C20.0383 9.7106 20.0383 9.94807 19.8851 10.0945L19.0525 10.8901C18.8993 11.0366 18.6508 11.0366 18.4975 10.8901L17 9.45899L17 15Z" fill="#212A34"/>
</svg>
