<svg width="32" height="32" viewBox="0 0 32 32" fill="none" xmlns="http://www.w3.org/2000/svg">
<path d="M6 9.4C6 9.17909 6.17909 9 6.4 9H25.6C25.8209 9 26 9.17909 26 9.4V10.6C26 10.8209 25.8209 11 25.6 11H6.4C6.17909 11 6 10.8209 6 10.6V9.4Z" fill="#212A34"/>
<path d="M6 15.4C6 15.1791 6.17909 15 6.4 15H17.6C17.8209 15 18 15.1791 18 15.4V16.6C18 16.8209 17.8209 17 17.6 17H6.4C6.17909 17 6 16.8209 6 16.6V15.4Z" fill="#212A34"/>
<path d="M6.4 21C6.17909 21 6 21.1791 6 21.4V22.6C6 22.8209 6.17909 23 6.4 23H25.6C25.8209 23 26 22.8209 26 22.6V21.4C26 21.1791 25.8209 21 25.6 21H6.4Z" fill="#212A34"/>
</svg>
