<svg width="32" height="32" viewBox="0 0 32 32" fill="none" xmlns="http://www.w3.org/2000/svg">
<path fill-rule="evenodd" clip-rule="evenodd" d="M24 16C24 20.4183 20.4183 24 16 24C11.5817 24 8 20.4183 8 16C8 11.5817 11.5817 8 16 8C20.4183 8 24 11.5817 24 16ZM26 16C26 21.5228 21.5228 26 16 26C10.4772 26 6 21.5228 6 16C6 10.4772 10.4772 6 16 6C21.5228 6 26 10.4772 26 16ZM14.4682 20C14.6035 20 14.7337 19.9448 14.8292 19.8459L20.7756 13.7189C21.0748 13.4111 21.0748 12.9114 20.7756 12.6032L20.4146 12.2312C20.1159 11.9229 19.6309 11.9229 19.3316 12.2312L14.4682 17.242L12.6684 15.3875C12.3692 15.0793 11.8846 15.0793 11.5854 15.3875L11.2244 15.7595C10.9252 16.0672 10.9252 16.567 11.2244 16.8753L14.1072 19.8459C14.2027 19.9448 14.3329 20 14.4682 20Z" fill="#212A34"/>
</svg>
