<svg width="32" height="32" viewBox="0 0 32 32" fill="none" xmlns="http://www.w3.org/2000/svg">
<path d="M15.4 10C15.1791 10 15 10.1791 15 10.4V16.4757C15 16.5545 15.0233 16.6315 15.0669 16.6971L17.0409 19.6661C17.1635 19.8504 17.4124 19.9001 17.5963 19.7772L18.6683 19.0606C18.8516 18.9381 18.9012 18.6903 18.7791 18.5066L17.1546 16.0634C17.1109 15.9978 17.0877 15.9207 17.0877 15.8419V10.4C17.0877 10.1791 16.9086 10 16.6877 10H15.4Z" fill="#212A34"/>
<path fill-rule="evenodd" clip-rule="evenodd" d="M16 6C10.4772 6 6 10.4772 6 16C6 21.5228 10.4772 26 16 26C21.5228 26 26 21.5228 26 16C26 10.4772 21.5228 6 16 6ZM8 16C8 11.5817 11.5817 8 16 8C20.4183 8 24 11.5817 24 16C24 20.4183 20.4183 24 16 24C11.5817 24 8 20.4183 8 16Z" fill="#212A34"/>
</svg>
