<svg width="32" height="32" viewBox="0 0 32 32" fill="none" xmlns="http://www.w3.org/2000/svg">
<path fill-rule="evenodd" clip-rule="evenodd" d="M13.9 6C13.6791 6 13.5 6.17909 13.5 6.4V7.75478C13.5 7.92952 13.3862 8.0831 13.2215 8.14135C12.9433 8.23971 12.6719 8.3524 12.4082 8.47853C12.2505 8.55396 12.0614 8.52583 11.9378 8.40222L10.9795 7.444C10.8233 7.28779 10.5701 7.28779 10.4139 7.444L7.44401 10.4139C7.2878 10.5701 7.2878 10.8233 7.44401 10.9795L8.40223 11.9378C8.52584 12.0614 8.55396 12.2505 8.47854 12.4082C8.35241 12.6719 8.23971 12.9433 8.14135 13.2215C8.0831 13.3862 7.92952 13.5 7.75478 13.5H6.4C6.17909 13.5 6 13.6791 6 13.9V18.1C6 18.3209 6.17909 18.5 6.4 18.5H7.75478C7.92952 18.5 8.0831 18.6138 8.14135 18.7785C8.2397 19.0567 8.35238 19.328 8.47849 19.5917C8.55391 19.7494 8.52578 19.9385 8.40218 20.0621L7.44385 21.0205C7.28764 21.1767 7.28764 21.4299 7.44385 21.5861L10.4137 24.556C10.5699 24.7122 10.8232 24.7122 10.9794 24.556L11.9377 23.5977C12.0613 23.4741 12.2504 23.446 12.4081 23.5214C12.6718 23.6476 12.9433 23.7603 13.2215 23.8587C13.3862 23.9169 13.5 24.0705 13.5 24.2452V25.6C13.5 25.8209 13.6791 26 13.9 26H18.1C18.3209 26 18.5 25.8209 18.5 25.6V24.2452C18.5 24.0705 18.6138 23.9169 18.7785 23.8587C19.0567 23.7603 19.3281 23.6476 19.5918 23.5215C19.7495 23.446 19.9386 23.4742 20.0622 23.5978L21.0205 24.556C21.1767 24.7122 21.4299 24.7122 21.5861 24.556L24.556 21.5861C24.7122 21.4299 24.7122 21.1767 24.556 21.0205L23.5978 20.0622C23.4742 19.9386 23.446 19.7495 23.5215 19.5918C23.6476 19.3281 23.7603 19.0567 23.8587 18.7785C23.9169 18.6138 24.0705 18.5 24.2452 18.5H25.6C25.8209 18.5 26 18.3209 26 18.1V13.9C26 13.6791 25.8209 13.5 25.6 13.5H24.2452C24.0705 13.5 23.9169 13.3862 23.8587 13.2215C23.7603 12.9433 23.6476 12.6718 23.5214 12.4081C23.446 12.2504 23.4741 12.0613 23.5977 11.9377L24.5558 10.9795C24.712 10.8233 24.712 10.5701 24.5558 10.4139L21.586 7.44401C21.4298 7.2878 21.1765 7.2878 21.0203 7.44401L20.0621 8.40218C19.9385 8.52578 19.7494 8.55391 19.5917 8.47849C19.328 8.35238 19.0567 8.2397 18.7785 8.14135C18.6138 8.0831 18.5 7.92952 18.5 7.75478V6.4C18.5 6.17909 18.3209 6 18.1 6H13.9ZM15.1667 9.03187V7.66667H16.8333V9.03187C16.8333 9.21868 16.9626 9.38061 17.1448 9.42195L17.4823 9.49852C18.2256 9.6672 18.922 9.96026 19.5485 10.3551L19.8413 10.5395C19.9993 10.6391 20.2053 10.616 20.3374 10.4839L21.3031 9.51819L22.4817 10.6967L21.5159 11.6624C21.3838 11.7945 21.3608 12.0005 21.4604 12.1585L21.6448 12.4513C22.0397 13.0779 22.3328 13.7743 22.5015 14.5177L22.578 14.8552C22.6194 15.0374 22.7813 15.1667 22.9681 15.1667H24.3333V16.8333H22.9681C22.7813 16.8333 22.6194 16.9626 22.578 17.1448L22.5015 17.4823C22.3328 18.2256 22.0397 18.922 21.6449 19.5486L21.4604 19.8414C21.3608 19.9994 21.3839 20.2054 21.516 20.3375L22.4818 21.3033L21.3033 22.4818L20.3375 21.516C20.2054 21.3839 19.9994 21.3608 19.8414 21.4604L19.5486 21.6449C18.9221 22.0397 18.2256 22.3328 17.4823 22.5015L17.1448 22.578C16.9626 22.6194 16.8333 22.7813 16.8333 22.9681V24.3333H15.1667V22.9681C15.1667 22.7813 15.0374 22.6194 14.8552 22.578L14.5177 22.5015C13.7743 22.3328 13.0779 22.0397 12.4513 21.6448L12.1585 21.4604C12.0005 21.3608 11.7945 21.3838 11.6624 21.5159L10.6965 22.4818L9.51803 21.3033L10.484 20.3374C10.616 20.2053 10.6391 19.9993 10.5395 19.8413L10.3551 19.5485C9.96026 18.922 9.6672 18.2256 9.49852 17.4823L9.42195 17.1448C9.38061 16.9626 9.21868 16.8333 9.03187 16.8333H7.66667V15.1667H9.03187C9.21868 15.1667 9.38061 15.0374 9.42195 14.8552L9.49852 14.5177C9.6672 13.7744 9.96029 13.0779 10.3551 12.4514L10.5396 12.1586C10.6392 12.0006 10.6161 11.7946 10.484 11.6625L9.51819 10.6967L10.6967 9.51818L11.6625 10.484C11.7946 10.6161 12.0006 10.6392 12.1586 10.5396L12.4514 10.3551C13.078 9.96028 13.7744 9.6672 14.5177 9.49852L14.8552 9.42195C15.0374 9.38061 15.1667 9.21868 15.1667 9.03187ZM19 16C19 17.6569 17.6569 19 16 19C14.3431 19 13 17.6569 13 16C13 14.3431 14.3431 13 16 13C17.6569 13 19 14.3431 19 16ZM21 16C21 18.7614 18.7614 21 16 21C13.2386 21 11 18.7614 11 16C11 13.2386 13.2386 11 16 11C18.7614 11 21 13.2386 21 16Z" fill="#212A34"/>
</svg>
