<svg width="32" height="32" viewBox="0 0 32 32" fill="none" xmlns="http://www.w3.org/2000/svg">
<path fill-rule="evenodd" clip-rule="evenodd" d="M14.4 6C14.1791 6 14 6.17909 14 6.4V21.6C14 21.8209 14.1791 22 14.4 22H17.6C17.8209 22 18 21.8209 18 21.6V6.4C18 6.17909 17.8209 6 17.6 6H14.4ZM16.6 7.4H15.4V20.6H16.6V7.4Z" fill="#212A34"/>
<path fill-rule="evenodd" clip-rule="evenodd" d="M8.4 14C8.17909 14 8 14.1791 8 14.4V21.6C8 21.8209 8.17909 22 8.4 22H11.6C11.8209 22 12 21.8209 12 21.6V14.4C12 14.1791 11.8209 14 11.6 14H8.4ZM10.6 15.4H9.4V20.6H10.6V15.4Z" fill="#212A34"/>
<path fill-rule="evenodd" clip-rule="evenodd" d="M20.4 9C20.1791 9 20 9.17909 20 9.4V21.6C20 21.8209 20.1791 22 20.4 22H23.6C23.8209 22 24 21.8209 24 21.6V9.4C24 9.17909 23.8209 9 23.6 9H20.4ZM22.6 10.4H21.4V20.6H22.6V10.4Z" fill="#212A34"/>
<path d="M7.4 24C7.17909 24 7 24.1791 7 24.4V25.6C7 25.8209 7.17909 26 7.4 26H24.6C24.8209 26 25 25.8209 25 25.6V24.4C25 24.1791 24.8209 24 24.6 24H7.4Z" fill="#212A34"/>
</svg>
