<svg width="32" height="32" viewBox="0 0 32 32" fill="none" xmlns="http://www.w3.org/2000/svg">
<path fill-rule="evenodd" clip-rule="evenodd" d="M12 20.4C12 20.6472 12.2822 20.7883 12.48 20.64L16 18L19.52 20.64C19.7178 20.7883 20 20.6472 20 20.4V12.6C20 12.2686 19.7314 12 19.4 12H12.6C12.2686 12 12 12.2686 12 12.6V20.4Z" fill="#F4BF00"/>
<path fill-rule="evenodd" clip-rule="evenodd" d="M26 16C26 21.5228 21.5228 26 16 26C10.4772 26 6 21.5228 6 16C6 10.4772 10.4772 6 16 6C21.5228 6 26 10.4772 26 16ZM24 16C24 20.4183 20.4183 24 16 24C11.5817 24 8 20.4183 8 16C8 11.5817 11.5817 8 16 8C20.4183 8 24 11.5817 24 16Z" fill="#F4BF00"/>
</svg>
