<svg width="32" height="32" viewBox="0 0 32 32" fill="none" xmlns="http://www.w3.org/2000/svg">
<path d="M10.5944 10.5055C8.99975 11.868 8 13.8252 8 16C8 18.1748 8.99975 20.132 10.5944 21.4945C10.7497 21.6271 10.7725 21.8444 10.6384 21.9943L9.85822 22.8665C9.71623 23.0252 9.45459 23.0469 9.28927 22.9074C7.26903 21.2027 6 18.7394 6 16C6 13.2606 7.26903 10.7973 9.28927 9.09262C9.45459 8.95313 9.71623 8.97477 9.85822 9.13351L10.6384 10.0057C10.7725 10.1556 10.7497 10.3729 10.5944 10.5055Z" fill="#212A34"/>
<path d="M21.3616 21.9943C21.2275 21.8444 21.2503 21.6271 21.4056 21.4945C23.0002 20.132 24 18.1748 24 16C24 13.8252 23.0002 11.868 21.4056 10.5055C21.2503 10.3729 21.2275 10.1556 21.3616 10.0057L22.1418 9.13351C22.2838 8.97477 22.5454 8.95313 22.7107 9.09262C24.731 10.7973 26 13.2606 26 16C26 18.7394 24.731 21.2027 22.7107 22.9074C22.5454 23.0469 22.2838 23.0252 22.1418 22.8665L21.3616 21.9943Z" fill="#212A34"/>
<path d="M13.1615 13.3743C12.4435 14.0479 12 14.9757 12 16C12 17.0243 12.4435 17.9521 13.1615 18.6257C13.3096 18.7647 13.3333 18.9814 13.1992 19.1313L12.419 20.0035C12.277 20.1623 12.015 20.1842 11.8539 20.0407C10.7115 19.023 10 17.5889 10 16C10 14.4111 10.7115 12.977 11.8539 11.9593C12.015 11.8158 12.277 11.8377 12.419 11.9965L13.1992 12.8687C13.3333 13.0186 13.3096 13.2353 13.1615 13.3743Z" fill="#212A34"/>
<path d="M18.8008 19.1313C18.6667 18.9814 18.6904 18.7647 18.8385 18.6257C19.5565 17.9521 20 17.0243 20 16C20 14.9757 19.5565 14.0479 18.8385 13.3743C18.6904 13.2353 18.6667 13.0186 18.8008 12.8687L19.581 11.9965C19.723 11.8377 19.985 11.8158 20.1461 11.9593C21.2885 12.977 22 14.4111 22 16C22 17.5889 21.2885 19.023 20.1461 20.0407C19.985 20.1842 19.723 20.1623 19.581 20.0035L18.8008 19.1313Z" fill="#212A34"/>
<path d="M16 18C17.1046 18 18 17.1046 18 16C18 14.8954 17.1046 14 16 14C14.8954 14 14 14.8954 14 16C14 17.1046 14.8954 18 16 18Z" fill="#212A34"/>
</svg>
