<svg width="32" height="32" viewBox="0 0 32 32" fill="none" xmlns="http://www.w3.org/2000/svg">
<path fill-rule="evenodd" clip-rule="evenodd" d="M10 14.1036C10 10.6933 12.7127 7.97649 16 7.97649C19.2873 7.97649 22 10.6933 22 14.1036C22 14.8332 21.6616 15.8127 21.0291 16.9546C20.4106 18.0712 19.5735 19.2336 18.717 20.2991C17.8635 21.3609 17.0074 22.306 16.3633 22.9866C16.2327 23.1247 16.111 23.2517 16 23.3663C15.889 23.2517 15.7673 23.1247 15.6367 22.9866C14.9926 22.306 14.1365 21.3609 13.283 20.2991C12.4265 19.2336 11.5894 18.0712 10.9709 16.9546C10.3384 15.8127 10 14.8332 10 14.1036ZM15.3017 25.484C15.3017 25.484 15.302 25.4843 16 24.7767L16.698 25.4843L16.2792 25.8878C16.1239 26.0374 15.8761 26.0374 15.7208 25.8878L15.3017 25.484ZM15.3017 25.484L16 24.7767C16.698 25.4843 16.6988 25.4836 16.6988 25.4836L16.7047 25.4778L16.7214 25.4616L16.7835 25.4009C16.8372 25.3482 16.9149 25.2714 17.0133 25.1727C17.2099 24.9753 17.4894 24.6904 17.8242 24.3366C18.4926 23.6301 19.3865 22.6437 20.283 21.5285C21.1765 20.4169 22.0894 19.1566 22.7834 17.9036C23.4634 16.676 24 15.3389 24 14.1036C24 9.65454 20.4446 6 16 6C11.5554 6 8 9.65454 8 14.1036C8 15.3389 8.53658 16.676 9.21656 17.9036C9.9106 19.1566 10.8235 20.4169 11.717 21.5285C12.6135 22.6437 13.5074 23.6301 14.1758 24.3366C14.5106 24.6904 14.7901 24.9753 14.9867 25.1727C15.0851 25.2714 15.1628 25.3482 15.2165 25.4009L15.2786 25.4616L15.2953 25.4778L15.3017 25.484ZM18 13.906C18 14.9975 17.1046 15.8824 16 15.8824C14.8954 15.8824 14 14.9975 14 13.906C14 12.8144 14.8954 11.9295 16 11.9295C17.1046 11.9295 18 12.8144 18 13.906ZM20 13.906C20 16.0891 18.2091 17.8589 16 17.8589C13.7909 17.8589 12 16.0891 12 13.906C12 11.7228 13.7909 9.95298 16 9.95298C18.2091 9.95298 20 11.7228 20 13.906Z" fill="#212A34"/>
</svg>
