<svg width="32" height="32" viewBox="0 0 32 32" fill="none" xmlns="http://www.w3.org/2000/svg">
<path fill-rule="evenodd" clip-rule="evenodd" d="M16 16C17.6569 16 19 14.6569 19 13C19 11.3431 17.6569 10 16 10C14.3431 10 13 11.3431 13 13C13 14.6569 14.3431 16 16 16ZM16 14.4C16.7732 14.4 17.4 13.7732 17.4 13C17.4 12.2268 16.7732 11.6 16 11.6C15.2268 11.6 14.6 12.2268 14.6 13C14.6 13.7732 15.2268 14.4 16 14.4Z" fill="#212A34"/>
<path d="M16 22C17.1046 22 18 21.1046 18 20C18 18.8954 17.1046 18 16 18C14.8954 18 14 18.8954 14 20C14 21.1046 14.8954 22 16 22Z" fill="#212A34"/>
<path fill-rule="evenodd" clip-rule="evenodd" d="M8 6.6C8 6.26863 8.26863 6 8.6 6H23.4C23.7314 6 24 6.26863 24 6.6V25.4C24 25.7314 23.7314 26 23.4 26H8.6C8.26863 26 8 25.7314 8 25.4V6.6ZM10 8V24H22V8H10Z" fill="#212A34"/>
</svg>
