<svg width="32" height="32" viewBox="0 0 32 32" fill="none" xmlns="http://www.w3.org/2000/svg">
<path d="M9 15.2C9 15.0895 9.08954 15 9.2 15H11.8C11.9105 15 12 15.0895 12 15.2V16.8C12 16.9105 11.9105 17 11.8 17H9.2C9.08954 17 9 16.9105 9 16.8V15.2Z" fill="#212A34"/>
<path d="M14.2 15C14.0895 15 14 15.0895 14 15.2V16.8C14 16.9105 14.0895 17 14.2 17H21.8C21.9105 17 22 16.9105 22 16.8V15.2C22 15.0895 21.9105 15 21.8 15H14.2Z" fill="#212A34"/>
<path fill-rule="evenodd" clip-rule="evenodd" d="M6.6 11C6.26863 11 6 11.2686 6 11.6V20.4C6 20.7314 6.26863 21 6.6 21H25.4C25.7314 21 26 20.7314 26 20.4V11.6C26 11.2686 25.7314 11 25.4 11H6.6ZM8 19V13H24V19H8Z" fill="#212A34"/>
</svg>
