<svg width="32" height="32" viewBox="0 0 32 32" fill="none" xmlns="http://www.w3.org/2000/svg">
<path fill-rule="evenodd" clip-rule="evenodd" d="M6 8.6C6 8.26863 6.26863 8 6.6 8H14.4C14.7314 8 15 8.26863 15 8.6V14.4C15 14.7314 14.7314 15 14.4 15H6.6C6.26863 15 6 14.7314 6 14.4V8.6ZM8 10H13V13H8V10Z" fill="#212A34"/>
<path fill-rule="evenodd" clip-rule="evenodd" d="M17 8.6C17 8.26863 17.2686 8 17.6 8H25.4C25.7314 8 26 8.26863 26 8.6V14.4C26 14.7314 25.7314 15 25.4 15H17.6C17.2686 15 17 14.7314 17 14.4V8.6ZM19 10H24V13H19V10Z" fill="#212A34"/>
<path fill-rule="evenodd" clip-rule="evenodd" d="M6.6 17C6.26863 17 6 17.2686 6 17.6V23.4C6 23.7314 6.26863 24 6.6 24H14.4C14.7314 24 15 23.7314 15 23.4V17.6C15 17.2686 14.7314 17 14.4 17H6.6ZM13 19H8V22H13V19Z" fill="#212A34"/>
<path fill-rule="evenodd" clip-rule="evenodd" d="M17 17.6C17 17.2686 17.2686 17 17.6 17H25.4C25.7314 17 26 17.2686 26 17.6V23.4C26 23.7314 25.7314 24 25.4 24H17.6C17.2686 24 17 23.7314 17 23.4V17.6ZM19 19H24V22H19V19Z" fill="#212A34"/>
</svg>
