<svg width="32" height="32" viewBox="0 0 32 32" fill="none" xmlns="http://www.w3.org/2000/svg">
<path fill-rule="evenodd" clip-rule="evenodd" d="M25.3029 7.03054C25.2892 6.85226 25.1475 6.7106 24.9692 6.69688L15.9237 6.00108C15.8182 5.99296 15.7144 6.03136 15.6396 6.10619L6.10594 15.6398C5.96436 15.7814 5.96436 16.0109 6.10594 16.1525L15.8472 25.8938C15.9888 26.0354 16.2184 26.0354 16.3599 25.8938L25.8936 16.3602C25.9684 16.2854 26.0068 16.1816 25.9987 16.076L25.3029 7.03054ZM8.41309 15.8962L16.4497 7.85956L23.5909 8.40888L24.1402 15.5501L16.1036 23.5867L8.41309 15.8962ZM19.308 15.2553C18.6001 15.9632 17.4524 15.9632 16.7445 15.2553C16.0366 14.5474 16.0366 13.3997 16.7445 12.6918C17.4524 11.9839 18.6001 11.9839 19.308 12.6918C20.0159 13.3997 20.0159 14.5474 19.308 15.2553ZM20.5897 16.537C19.1739 17.9528 16.8785 17.9528 15.4627 16.537C14.0469 15.1213 14.0469 12.8258 15.4627 11.41C16.8785 9.99427 19.1739 9.99427 20.5897 11.41C22.0055 12.8258 22.0055 15.1213 20.5897 16.537Z" fill="#212A34"/>
</svg>
