<svg width="32" height="32" viewBox="0 0 32 32" fill="none" xmlns="http://www.w3.org/2000/svg">
<path d="M13.9477 18C15.057 18 15.9564 17.1046 15.9564 16C15.9564 14.8954 15.057 14 13.9477 14C12.8383 14 11.9389 14.8954 11.9389 16C11.9389 17.1046 12.8383 18 13.9477 18Z" fill="#212A34"/>
<path fill-rule="evenodd" clip-rule="evenodd" d="M6.07509 15.7769C5.97497 15.9117 5.97497 16.0883 6.07509 16.2231C6.88241 17.3102 10.5614 22 13.9477 22C16.6332 22 19.5029 19.0503 20.9782 17.2873C22.0358 18.5512 23.81 20.4249 25.7193 21.3845C25.8496 21.4501 26 21.3536 26 21.2083V19.3504C26 19.2823 25.9652 19.2191 25.9081 19.1816C25.2449 18.7455 24.5816 18.1801 23.9643 17.5749C23.4025 17.0241 22.9072 16.4684 22.5155 16C22.9072 15.5316 23.4025 14.9759 23.9643 14.4251C24.5816 13.8199 25.2449 13.2545 25.9081 12.8184C25.9652 12.7809 26 12.7176 26 12.6496V10.7917C26 10.6464 25.8496 10.5499 25.7193 10.6154C23.81 11.5751 22.0358 13.4488 20.9782 14.7127C19.5028 12.9497 16.6332 10 13.9477 10C10.5614 10 6.88241 14.6898 6.07509 15.7769ZM8.45447 16C8.8461 16.4684 9.34146 17.0241 9.90328 17.5749C10.6044 18.2623 11.3648 18.8982 12.1169 19.3518C12.8865 19.8158 13.5002 20 13.9477 20C14.3951 20 15.0088 19.8158 15.7784 19.3518C16.5306 18.8982 17.291 18.2623 17.992 17.5749C18.5539 17.0241 19.0492 16.4684 19.4409 16C19.0492 15.5316 18.5539 14.9759 17.992 14.4251C17.291 13.7377 16.5306 13.1018 15.7784 12.6482C15.0088 12.1842 14.3951 12 13.9477 12C13.5002 12 12.8865 12.1842 12.1169 12.6482C11.3648 13.1018 10.6044 13.7377 9.90328 14.4251C9.34146 14.9759 8.8461 15.5316 8.45447 16Z" fill="#212A34"/>
</svg>
