<svg width="32" height="32" viewBox="0 0 32 32" fill="none" xmlns="http://www.w3.org/2000/svg">
<path d="M14.4 12C14.1791 12 14 12.1791 14 12.4V13.6C14 13.8209 14.1791 14 14.4 14H21.6C21.8209 14 22 13.8209 22 13.6V12.4C22 12.1791 21.8209 12 21.6 12H14.4Z" fill="#212A34"/>
<path d="M10 16.4C10 16.1791 10.1791 16 10.4 16H17.6C17.8209 16 18 16.1791 18 16.4V17.6C18 17.8209 17.8209 18 17.6 18H10.4C10.1791 18 10 17.8209 10 17.6V16.4Z" fill="#212A34"/>
<path d="M12 13C12 13.5523 11.5523 14 11 14C10.4477 14 10 13.5523 10 13C10 12.4477 10.4477 12 11 12C11.5523 12 12 12.4477 12 13Z" fill="#212A34"/>
<path d="M21 18C21.5523 18 22 17.5523 22 17C22 16.4477 21.5523 16 21 16C20.4477 16 20 16.4477 20 17C20 17.5523 20.4477 18 21 18Z" fill="#212A34"/>
<path fill-rule="evenodd" clip-rule="evenodd" d="M6 8.6C6 8.26863 6.26863 8 6.6 8H25.4C25.7314 8 26 8.26863 26 8.6V21.4C26 21.7314 25.7314 22 25.4 22H6.6C6.26863 22 6 21.7314 6 21.4V8.6ZM8 20V10H24V20H8Z" fill="#212A34"/>
<path d="M6.4 24C6.17909 24 6 24.1791 6 24.4V25.6C6 25.8209 6.17909 26 6.4 26H25.6C25.8209 26 26 25.8209 26 25.6V24.4C26 24.1791 25.8209 24 25.6 24H6.4Z" fill="#212A34"/>
</svg>
