<svg width="32" height="32" viewBox="0 0 32 32" fill="none" xmlns="http://www.w3.org/2000/svg">
<path fill-rule="evenodd" clip-rule="evenodd" d="M12.9829 6.00542C13.047 5.99474 13.1129 5.9999 13.1746 6.02045L18.9866 7.9546C19.0483 7.97515 19.1141 7.98031 19.1783 7.96962L25.5344 6.91201C25.7782 6.87145 26 7.05965 26 7.30702V24.4933C26 24.6891 25.8585 24.8562 25.6656 24.8883L19.0171 25.9946C18.953 26.0053 18.8871 26.0001 18.8254 25.9796L13.0134 24.0454C12.9517 24.0249 12.8859 24.0197 12.8217 24.0304L6.46559 25.088C6.22183 25.1285 6 24.9403 6 24.693V7.5067C6 7.31088 6.14146 7.14379 6.33441 7.11168L12.9829 6.00542ZM8.33441 8.80317C8.14146 8.83528 8 9.00237 8 9.19818V22.3359C8 22.5833 8.22183 22.7715 8.46559 22.7309L12 22.1428V8.19324L8.33441 8.80317ZM18 23.6001L14 22.269V8.39986L18 9.73102V23.6001ZM20 23.8068L23.6656 23.1968C23.8585 23.1647 24 22.9976 24 22.8018V9.66409C24 9.41671 23.7782 9.22851 23.5344 9.26907L20 9.85718V23.8068Z" fill="#212A34"/>
</svg>
