<svg width="32" height="32" viewBox="0 0 32 32" fill="none" xmlns="http://www.w3.org/2000/svg">
<path fill-rule="evenodd" clip-rule="evenodd" d="M19.288 14.7669C20.3372 13.8504 21 12.5026 21 11C21 8.23858 18.7614 6 16 6C13.2386 6 11 8.23858 11 11C11 12.5026 11.6628 13.8504 12.712 14.7669C9.90092 16.1538 8 19.2615 8 22.76V24.5998C8 24.8208 8.17921 24.9999 8.4002 24.9998L9.6002 24.9992C9.82103 24.9991 10 24.82 10 24.5992V22.76C10 18.9271 12.7808 16 16 16C19.2192 16 22 18.9271 22 22.76V24.5998C22 24.8208 22.1792 24.9999 22.4002 24.9998L23.6002 24.9992C23.821 24.9991 24 24.82 24 24.5992V22.76C24 19.2615 22.0991 16.1538 19.288 14.7669ZM13 11C13 9.34315 14.3431 8 16 8C17.6569 8 19 9.34315 19 11C19 12.6569 17.6569 14 16 14C14.3431 14 13 12.6569 13 11Z" fill="#212A34"/>
</svg>
