<svg width="32" height="32" viewBox="0 0 32 32" fill="none" xmlns="http://www.w3.org/2000/svg">
<path d="M15.6 6C15.2686 6 15 6.26863 15 6.6V9.07089C15.3266 9.02417 15.6605 9 16 9C16.3395 9 16.6734 9.02417 17 9.07089V6.6C17 6.26863 16.7314 6 16.4 6H15.6Z" fill="#212A34"/>
<path d="M22.7881 8.6461C22.5538 8.41179 22.1739 8.41179 21.9396 8.6461L20.1921 10.3935C20.7282 10.795 21.2048 11.2716 21.6064 11.8077L23.3538 10.0603C23.5881 9.826 23.5881 9.4461 23.3538 9.21179L22.7881 8.6461Z" fill="#212A34"/>
<path d="M8.64595 10.0603C8.41164 9.826 8.41164 9.4461 8.64595 9.21179L9.21164 8.6461C9.44595 8.41179 9.82585 8.41179 10.0602 8.6461L11.8077 10.3937C11.2717 10.7952 10.7951 11.2718 10.3936 11.8079L8.64595 10.0603Z" fill="#212A34"/>
<path d="M22.9291 17C22.9758 16.6734 23 16.3395 23 16C23 15.6605 22.9758 15.3266 22.9291 15H25.4C25.7314 15 26 15.2686 26 15.6V16.4C26 16.7314 25.7314 17 25.4 17H22.9291Z" fill="#212A34"/>
<path d="M9.07089 17H6.6C6.26863 17 6 16.7314 6 16.4V15.6C6 15.2686 6.26863 15 6.6 15H9.07089C9.02417 15.3266 9 15.6605 9 16C9 16.3395 9.02417 16.6734 9.07089 17Z" fill="#212A34"/>
<path fill-rule="evenodd" clip-rule="evenodd" d="M10 24V16C10 12.6863 12.6863 10 16 10C19.3137 10 22 12.6863 22 16V24H23.6444C23.8408 24 24 24.1791 24 24.4V25.6C24 25.8209 23.8408 26 23.6444 26H8.35556C8.15919 26 8 25.8209 8 25.6V24.4C8 24.1791 8.15919 24 8.35556 24H10ZM20 16V24H17V19.7324C17.5978 19.3866 18 18.7403 18 18C18 16.8954 17.1046 16 16 16C14.8954 16 14 16.8954 14 18C14 18.7403 14.4022 19.3866 15 19.7324V24H12V16C12 13.7909 13.7909 12 16 12C18.2091 12 20 13.7909 20 16Z" fill="#212A34"/>
</svg>
