<svg width="32" height="32" viewBox="0 0 32 32" fill="none" xmlns="http://www.w3.org/2000/svg">
<path d="M20 20.9973C20.5523 20.9973 21 20.5492 21 19.9966C21 19.4439 20.5523 18.9959 20 18.9959C19.4477 18.9959 19 19.4439 19 19.9966C19 20.5492 19.4477 20.9973 20 20.9973Z" fill="#212A34"/>
<path d="M17 19.9966C17 20.5492 16.5523 20.9973 16 20.9973C15.4477 20.9973 15 20.5492 15 19.9966C15 19.4439 15.4477 18.9959 16 18.9959C16.5523 18.9959 17 19.4439 17 19.9966Z" fill="#212A34"/>
<path d="M12 20.9973C12.5523 20.9973 13 20.5492 13 19.9966C13 19.4439 12.5523 18.9959 12 18.9959C11.4477 18.9959 11 19.4439 11 19.9966C11 20.5492 11.4477 20.9973 12 20.9973Z" fill="#212A34"/>
<path fill-rule="evenodd" clip-rule="evenodd" d="M7 8.58877C7 8.80984 7.1796 8.98694 7.39944 9.00875C9.42104 9.20932 11 10.916 11 12.9918H10.2C10.0895 12.9918 10 13.0814 10 13.1919V14.9931H6.4C6.17909 14.9931 6 15.1724 6 15.3934V24.5997C6 24.8208 6.17909 25 6.4 25H25.6C25.8209 25 26 24.8208 26 24.5997V15.3934C26 15.1724 25.8209 14.9931 25.6 14.9931H22V13.1919C22 13.0814 21.9105 12.9918 21.8 12.9918H21C21 10.916 22.579 9.20932 24.6006 9.00875C24.8204 8.98694 25 8.80984 25 8.58877V7.38795C25 7.16688 24.8204 6.98629 24.5999 7.00081C21.4727 7.20683 19 9.81033 19 12.9918H18.2C18.0895 12.9918 18 13.0814 18 13.1919V14.9931H14V13.1919C14 13.0814 13.9105 12.9918 13.8 12.9918H13C13 9.81033 10.5273 7.20683 7.40008 7.00081C7.17964 6.98629 7 7.16688 7 7.38795V8.58877ZM8 16.9945V22.9986H24V16.9945H8Z" fill="#212A34"/>
</svg>
