<svg width="32" height="32" viewBox="0 0 32 32" fill="none" xmlns="http://www.w3.org/2000/svg">
<path d="M15.2375 16.4167C15.0866 16.7885 15.0111 17.2881 15.0111 17.9153H16.7159L16.7425 17.5054C16.7913 17.0663 16.9845 16.6832 17.3219 16.3562L17.8613 15.8387C18.283 15.4265 18.5782 15.0524 18.7469 14.7164C18.9156 14.3759 19 14.0152 19 13.6344C19 12.7966 18.7403 12.1492 18.2209 11.6922C17.7014 11.2307 16.9711 11 16.03 11C15.0977 11 14.3607 11.2419 13.8191 11.7258C13.2819 12.2097 13.0089 12.8795 13 13.7352H14.9312C14.9401 13.3768 15.0422 13.0968 15.2375 12.8952C15.4373 12.6891 15.7014 12.586 16.03 12.586C16.7225 12.586 17.0688 12.9646 17.0688 13.7218C17.0688 13.9727 17.0022 14.2124 16.869 14.4409C16.7358 14.6649 16.4673 14.9583 16.0633 15.3212C15.6637 15.6797 15.3885 16.0448 15.2375 16.4167Z" fill="#0091DA"/>
<path d="M15.1176 19.2392C14.9179 19.4319 14.818 19.6783 14.818 19.9785C14.818 20.2742 14.9156 20.5184 15.111 20.711C15.3108 20.9037 15.5727 21 15.8968 21C16.2209 21 16.4806 20.9037 16.6759 20.711C16.8757 20.5184 16.9756 20.2742 16.9756 19.9785C16.9756 19.6783 16.8735 19.4319 16.6693 19.2392C16.4695 19.0421 16.212 18.9435 15.8968 18.9435C15.5816 18.9435 15.3219 19.0421 15.1176 19.2392Z" fill="#0091DA"/>
<path fill-rule="evenodd" clip-rule="evenodd" d="M26 16C26 21.5228 21.5228 26 16 26C10.4772 26 6 21.5228 6 16C6 10.4772 10.4772 6 16 6C21.5228 6 26 10.4772 26 16ZM24 16C24 20.4183 20.4183 24 16 24C11.5817 24 8 20.4183 8 16C8 11.5817 11.5817 8 16 8C20.4183 8 24 11.5817 24 16Z" fill="#0091DA"/>
</svg>
