<svg width="32" height="32" viewBox="0 0 32 32" fill="none" xmlns="http://www.w3.org/2000/svg">
<path d="M7.36 7C7.16118 7 7 7.16118 7 7.36V12.94C7 13.1388 7.16118 13.3 7.36 13.3H8.44C8.63882 13.3 8.8 13.1388 8.8 12.94V8.8H12.94C13.1388 8.8 13.3 8.63882 13.3 8.44V7.36C13.3 7.16118 13.1388 7 12.94 7H7.36Z" fill="#212A34"/>
<path d="M19.06 8.8H23.2V12.94C23.2 13.1388 23.3612 13.3 23.56 13.3H24.64C24.8388 13.3 25 13.1388 25 12.94V7.36C25 7.16118 24.8388 7 24.64 7H19.06C18.8612 7 18.7 7.16118 18.7 7.36V8.44C18.7 8.63882 18.8612 8.8 19.06 8.8Z" fill="#212A34"/>
<path d="M8.8 19.06V23.2H12.94C13.1388 23.2 13.3 23.3612 13.3 23.56V24.64C13.3 24.8388 13.1388 25 12.94 25H7.36C7.16118 25 7 24.8388 7 24.64V19.06C7 18.8612 7.16118 18.7 7.36 18.7H8.44C8.63882 18.7 8.8 18.8612 8.8 19.06Z" fill="#212A34"/>
<path d="M23.2 19.06V23.2H19.06C18.8612 23.2 18.7 23.3612 18.7 23.56V24.64C18.7 24.8388 18.8612 25 19.06 25H24.64C24.8388 25 25 24.8388 25 24.64V19.06C25 18.8612 24.8388 18.7 24.64 18.7H23.56C23.3612 18.7 23.2 18.8612 23.2 19.06Z" fill="#212A34"/>
<path fill-rule="evenodd" clip-rule="evenodd" d="M20 16C20 18.2091 18.2091 20 16 20C13.7909 20 12 18.2091 12 16C12 13.7909 13.7909 12 16 12C18.2091 12 20 13.7909 20 16ZM18.2 16C18.2 17.215 17.215 18.2 16 18.2C14.785 18.2 13.8 17.215 13.8 16C13.8 14.785 14.785 13.8 16 13.8C17.215 13.8 18.2 14.785 18.2 16Z" fill="#212A34"/>
</svg>
