<svg width="32" height="32" viewBox="0 0 32 32" fill="none" xmlns="http://www.w3.org/2000/svg">
<path d="M14.8199 16.818C14.9221 16.8078 15 16.7218 15 16.619V15.381C15 15.2782 14.9221 15.1922 14.8199 15.182L13.2199 15.022C13.1022 15.0102 13 15.1027 13 15.221V16.779C13 16.8973 13.1022 16.9898 13.2199 16.978L14.8199 16.818Z" fill="#212A34"/>
<path fill-rule="evenodd" clip-rule="evenodd" d="M8.4 6C8.17909 6 8 6.17909 8 6.4V24H6.4C6.17909 24 6 24.1791 6 24.4V25.6C6 25.8209 6.17909 26 6.4 26H9.07386C9.10657 26 9.13915 25.996 9.17088 25.9881L17.697 23.8565C17.8751 23.812 18 23.652 18 23.4685V9.5842C18 9.41746 17.8966 9.26821 17.7404 9.20967L14.5147 8H20V25.6C20 25.8209 20.1791 26 20.4 26H23.6C23.8209 26 24 25.8209 24 25.6V24.4C24 24.1791 23.8209 24 23.6 24H22V6.4C22 6.17909 21.8209 6 21.6 6H8.4ZM16 10.693V22.2192L10 23.7192V8.443L16 10.693Z" fill="#212A34"/>
</svg>
