<svg width="32" height="32" viewBox="0 0 32 32" fill="none" xmlns="http://www.w3.org/2000/svg">
<path d="M12.1149 13.5025C11.9617 13.3492 11.9617 13.1007 12.1149 12.9475L12.9475 12.1149C13.1007 11.9617 13.3492 11.9617 13.5025 12.1149L16 14.6125L18.4975 12.1149C18.6508 11.9617 18.8993 11.9617 19.0525 12.1149L19.8851 12.9475C20.0383 13.1007 20.0383 13.3492 19.8851 13.5025L17.3875 16L19.8851 18.4975C20.0383 18.6508 20.0383 18.8993 19.8851 19.0525L19.0525 19.8851C18.8993 20.0383 18.6508 20.0383 18.4975 19.8851L16 17.3875L13.5025 19.8851C13.3492 20.0383 13.1007 20.0383 12.9475 19.8851L12.1149 19.0525C11.9617 18.8993 11.9617 18.6508 12.1149 18.4975L14.6125 16L12.1149 13.5025Z" fill="#EE5361"/>
<path fill-rule="evenodd" clip-rule="evenodd" d="M26 16C26 21.5228 21.5228 26 16 26C10.4772 26 6 21.5228 6 16C6 10.4772 10.4772 6 16 6C21.5228 6 26 10.4772 26 16ZM24 16C24 20.4183 20.4183 24 16 24C11.5817 24 8 20.4183 8 16C8 11.5817 11.5817 8 16 8C20.4183 8 24 11.5817 24 16Z" fill="#EE5361"/>
</svg>
