<svg width="32" height="32" viewBox="0 0 32 32" fill="none" xmlns="http://www.w3.org/2000/svg">
<path fill-rule="evenodd" clip-rule="evenodd" d="M16 5C13.8029 5 12.0219 6.79086 12.0219 9C12.0219 10.4224 12.7603 11.6715 13.8727 12.3807C11.6431 13.2088 10.0328 15.3016 10.0328 17.8V18.6C10.0328 18.8209 10.2109 19 10.4306 19H11.6241C11.8438 19 12.0219 18.8209 12.0219 18.6V17.8C12.0219 15.7394 13.7643 14 16 14C18.2357 14 19.9781 15.7394 19.9781 17.8V18.6C19.9781 18.8209 20.1562 19 20.3759 19H21.5693C21.789 19 21.9671 18.8209 21.9671 18.6V17.8C21.9671 15.3016 20.3569 13.2088 18.1272 12.3807C19.2397 11.6715 19.9781 10.4224 19.9781 9C19.9781 6.79086 18.197 5 16 5ZM14.0109 9C14.0109 7.89543 14.9015 7 16 7C17.0985 7 17.989 7.89543 17.989 9C17.989 10.1046 17.0985 11 16 11C14.9015 11 14.0109 10.1046 14.0109 9Z" fill="#212A34"/>
<path d="M15.0054 20.9209C15.0054 20.7442 15.1836 20.6009 15.4033 20.6009H16.5967C16.8164 20.6009 16.9945 20.7442 16.9945 20.9209V23.2676C17.589 23.6134 17.989 24.2597 17.989 25C17.989 26.1046 17.0985 27 16 27C14.9015 27 14.0109 26.1046 14.0109 25C14.0109 24.2597 14.4109 23.6134 15.0054 23.2676V20.9209Z" fill="#212A34"/>
<path d="M21.073 21.4494C20.9176 21.6056 20.9176 21.8589 21.073 22.0151L23.0894 24.0426C22.9122 24.7099 23.0839 25.4514 23.6045 25.9749C24.3813 26.7559 25.6407 26.7559 26.4174 25.9749C27.1942 25.1938 27.1942 23.9275 26.4174 23.1465C25.8969 22.623 25.1595 22.4504 24.496 22.6285L22.4795 20.6009C22.3241 20.4447 22.0722 20.4447 21.9169 20.6009L21.073 21.4494Z" fill="#212A34"/>
<path d="M9.52063 20.6009C9.67599 20.4447 9.92787 20.4447 10.0832 20.6009L10.9271 21.4494C11.0825 21.6056 11.0825 21.8589 10.9271 22.0151L8.91058 24.0427C9.08781 24.71 8.91612 25.4514 8.39551 25.9749C7.61874 26.7559 6.35935 26.7559 5.58258 25.9749C4.80581 25.1938 4.80581 23.9275 5.58258 23.1465C6.10316 22.623 6.84051 22.4504 7.50407 22.6285L9.52063 20.6009Z" fill="#212A34"/>
</svg>
