<svg width="32" height="32" viewBox="0 0 32 32" fill="none" xmlns="http://www.w3.org/2000/svg">
<path fill-rule="evenodd" clip-rule="evenodd" d="M15.7911 7.05732C15.9195 6.98089 16.08 6.98089 16.2084 7.05732L25.8032 12.7691C25.9861 12.8779 26.0524 13.1087 25.9549 13.2967L25.2889 14.5812C25.1818 14.7878 24.9208 14.8615 24.7199 14.7419L24.1025 14.3744V24.5985C24.1025 24.8202 23.9211 25 23.6974 25H8.30216C8.07841 25 7.89702 24.8202 7.89702 24.5985V14.3744L7.27956 14.7419C7.0787 14.8615 6.81767 14.7878 6.71059 14.5812L6.0446 13.2967C5.94711 13.1087 6.01346 12.8779 6.19633 12.7691L15.7911 7.05732ZM15.9998 9.55083L22.0768 13.1685V22.9926H19.0383V17.3718C19.0383 17.15 18.8569 16.9703 18.6331 16.9703H13.3664C13.1426 16.9703 12.9612 17.15 12.9612 17.3718V22.9926H9.9227V13.1685L15.9998 9.55083ZM14.9869 22.9926H17.0126V18.9777H14.9869V22.9926Z" fill="#212A34"/>
</svg>
