<svg width="32" height="32" viewBox="0 0 32 32" fill="none" xmlns="http://www.w3.org/2000/svg">
<path d="M15.0862 15.1268C14.9713 15.0119 14.9713 14.8255 15.0862 14.7106L15.7106 14.0862C15.8255 13.9713 16.0119 13.9713 16.1268 14.0862L18 15.9594L19.8732 14.0862C19.9881 13.9713 20.1745 13.9713 20.2894 14.0862L20.9138 14.7106C21.0287 14.8255 21.0287 15.0119 20.9138 15.1268L19.0406 17L20.9138 18.8732C21.0287 18.9881 21.0287 19.1745 20.9138 19.2894L20.2894 19.9138C20.1745 20.0287 19.9881 20.0287 19.8732 19.9138L18 18.0406L16.1268 19.9138C16.0119 20.0287 15.8255 20.0287 15.7106 19.9138L15.0862 19.2894C14.9713 19.1745 14.9713 18.9881 15.0862 18.8732L16.9594 17L15.0862 15.1268Z" fill="#F4BF00"/>
<path fill-rule="evenodd" clip-rule="evenodd" d="M8.25223 16.401C6.91891 17.0497 6 18.4176 6 20C6 22.2091 7.79086 24 10 24H22C24.2091 24 26 22.2091 26 20C26 18.6618 25.3428 17.477 24.3336 16.7509C24.7595 15.9269 25 14.9915 25 14C25 10.6863 22.3137 8 19 8C16.6409 8 14.5999 9.36144 13.6196 11.3415C13.1245 11.122 12.5765 11 12 11C9.79086 11 8 12.7909 8 15C8 15.4929 8.08916 15.965 8.25223 16.401ZM22.0213 17.3047L22.7346 15.9245C23.0315 15.3499 23.2 14.6973 23.2 14C23.2 11.6804 21.3196 9.8 19 9.8C17.3513 9.8 15.9211 10.7497 15.2328 12.1401L14.4673 13.6863L12.8901 12.987C12.6203 12.8674 12.3204 12.8 12 12.8C10.785 12.8 9.8 13.785 9.8 15C9.8 15.2744 9.84939 15.5331 9.93818 15.7705L10.5115 17.3035L9.03973 18.0196C8.30212 18.3785 7.8 19.1323 7.8 20C7.8 21.215 8.78497 22.2 10 22.2H22C23.215 22.2 24.2 21.215 24.2 20C24.2 19.2654 23.8417 18.6145 23.2823 18.212L22.0213 17.3047Z" fill="#F4BF00"/>
</svg>
