<svg width="32" height="32" viewBox="0 0 32 32" fill="none" xmlns="http://www.w3.org/2000/svg">
<path d="M15 6.6C15 6.26863 15.2686 6 15.6 6H16.4C16.7314 6 17 6.26863 17 6.6V9.07089C16.6734 9.02417 16.3395 9 16 9C15.6605 9 15.3266 9.02417 15 9.07089V6.6Z" fill="#212A34"/>
<path d="M21.9396 8.6461C22.1739 8.41179 22.5538 8.41179 22.7881 8.6461L23.3538 9.21179C23.5881 9.4461 23.5881 9.826 23.3538 10.0603L21.6064 11.8077C21.2048 11.2716 20.7282 10.795 20.1921 10.3935L21.9396 8.6461Z" fill="#212A34"/>
<path d="M8.64595 9.21179C8.41164 9.4461 8.41164 9.826 8.64595 10.0603L10.3936 11.8079C10.7951 11.2718 11.2717 10.7952 11.8077 10.3937L10.0602 8.6461C9.82585 8.41179 9.44595 8.41179 9.21164 8.6461L8.64595 9.21179Z" fill="#212A34"/>
<path d="M23 16C23 16.3395 22.9758 16.6734 22.9291 17H25.4C25.7314 17 26 16.7314 26 16.4V15.6C26 15.2686 25.7314 15 25.4 15H22.9291C22.9758 15.3266 23 15.6605 23 16Z" fill="#212A34"/>
<path d="M6.6 17H9.07089C9.02417 16.6734 9 16.3395 9 16C9 15.6605 9.02417 15.3266 9.07089 15H6.6C6.26863 15 6 15.2686 6 15.6V16.4C6 16.7314 6.26863 17 6.6 17Z" fill="#212A34"/>
<path d="M14.8659 16.3928C14.7937 16.184 14.6211 16 14.4002 16H13.6002C13.3793 16 13.1972 16.1801 13.2284 16.3988C13.422 17.7563 14.5892 18.8 16.0002 18.8C17.4112 18.8 18.5784 17.7563 18.772 16.3988C18.8032 16.1801 18.6211 16 18.4002 16H17.6002C17.3793 16 17.2067 16.184 17.1344 16.3928C16.9718 16.8626 16.5254 17.2 16.0002 17.2C15.475 17.2 15.0286 16.8626 14.8659 16.3928Z" fill="#212A34"/>
<path fill-rule="evenodd" clip-rule="evenodd" d="M22 16.125C22 18.2064 20.983 20.0453 19.4286 21.1521L18.6571 23.7153C18.6063 23.8843 18.4506 24 18.2741 24H18V25.6C18 25.8209 17.8209 26 17.6 26H14.4C14.1791 26 14 25.8209 14 25.6V24H13.7259C13.5494 24 13.3937 23.8843 13.3429 23.7153L12.5714 21.1521C11.017 20.0453 10 18.2064 10 16.125C10 12.7423 12.6863 10 16 10C19.3137 10 22 12.7423 22 16.125ZM14.2892 19.9201L13.7315 19.523C12.6904 18.7816 12 17.5428 12 16.125C12 13.8077 13.8295 12 16 12C18.1705 12 20 13.8077 20 16.125C20 17.5428 19.3096 18.7816 18.2685 19.523L17.7108 19.9201L17.0848 22H14.9152L14.2892 19.9201Z" fill="#212A34"/>
</svg>
