<svg width="32" height="32" viewBox="0 0 32 32" fill="none" xmlns="http://www.w3.org/2000/svg">
<path fill-rule="evenodd" clip-rule="evenodd" d="M6.2486 9.00602C6.12229 8.97453 6 9.07076 6 9.20192V22.7981C6 22.9293 6.12229 23.0255 6.2486 22.994C6.85411 22.843 7.43672 22.7038 8 22.5765C14.0854 21.2002 17.9146 21.2002 24 22.5765C24.5633 22.7038 25.1459 22.843 25.7514 22.994C25.8777 23.0255 26 22.9293 26 22.7981V9.20192C26 9.07076 25.8777 8.97453 25.7514 9.00602C25.1459 9.157 24.5633 9.29618 24 9.42357C17.9146 10.7998 14.0854 10.7998 8 9.42357C7.43672 9.29618 6.85411 9.157 6.2486 9.00602ZM8 11.4883V18.7232L11.7706 16.0625C11.9083 15.9653 12.0917 15.9653 12.2294 16.0625L14.5549 17.7034L19.7324 13.0061C19.8845 12.8681 20.1155 12.8681 20.2676 13.0061L24 16.3923V11.4883C21.0597 12.1331 18.5468 12.4719 16 12.4719C13.4532 12.4719 10.9403 12.1331 8 11.4883ZM24 18.8334L20 15.2045L16.0684 18.7714L17.1748 19.5521C19.3301 19.6397 21.5121 19.9661 24 20.5117V18.8334ZM14.0911 19.591C12.4254 19.6999 10.7253 19.9488 8.8634 20.3288L12 18.1155L14.0911 19.591Z" fill="#212A34"/>
</svg>
