<svg width="32" height="32" viewBox="0 0 32 32" fill="none" xmlns="http://www.w3.org/2000/svg">
<path fill-rule="evenodd" clip-rule="evenodd" d="M13.4 6C13.1791 6 13 6.17909 13 6.4V7.6C13 7.82091 13.1791 8 13.4 8H18.6C18.8209 8 19 7.82091 19 7.6V6.4C19 6.17909 18.8209 6 18.6 6H13.4ZM8 10.4C8 10.1791 8.17909 10 8.4 10H23.6C23.8209 10 24 10.1791 24 10.4V11.6C24 11.8209 23.8209 12 23.6 12H22V25.6C22 25.8209 21.8209 26 21.6 26H10.4C10.1791 26 10 25.8209 10 25.6V12H8.4C8.17909 12 8 11.8209 8 11.6V10.4ZM20.2857 12H11.7143V24.1176H20.2857V12ZM13.4 14C13.1791 14 13 14.1791 13 14.4V15.6C13 15.8209 13.1791 16 13.4 16H18.6C18.8209 16 19 15.8209 19 15.6V14.4C19 14.1791 18.8209 14 18.6 14H13.4Z" fill="#212A34"/>
</svg>
