<svg width="32" height="32" viewBox="0 0 32 32" fill="none" xmlns="http://www.w3.org/2000/svg">
<path fill-rule="evenodd" clip-rule="evenodd" d="M6.36364 6C6.16281 6 6 6.16281 6 6.36364V18.3636C6 18.5645 6.16281 18.7273 6.36364 18.7273H14.7273C14.9281 18.7273 15.0909 18.5645 15.0909 18.3636V6.36364C15.0909 6.16281 14.9281 6 14.7273 6H6.36364ZM7.81818 16.9091V7.81818H13.2727V16.9091H7.81818ZM17.2727 13.2727C17.0719 13.2727 16.9091 13.4355 16.9091 13.6364V25.6364C16.9091 25.8372 17.0719 26 17.2727 26H25.6364C25.8372 26 26 25.8372 26 25.6364V13.6364C26 13.4355 25.8372 13.2727 25.6364 13.2727H17.2727ZM18.7273 15.0909H24.1818V24.1818H18.7273V15.0909ZM6 20C6 19.7992 6.16281 19.6364 6.36364 19.6364H14.7273C14.9281 19.6364 15.0909 19.7992 15.0909 20V25.6364C15.0909 25.8372 14.9281 26 14.7273 26H6.36364C6.16281 26 6 25.8372 6 25.6364V20ZM7.81818 21.4545V24.1818H13.2727V21.4545H7.81818ZM17.2727 6C17.0719 6 16.9091 6.16281 16.9091 6.36364V12C16.9091 12.2008 17.0719 12.3636 17.2727 12.3636H25.6364C25.8372 12.3636 26 12.2008 26 12V6.36364C26 6.16281 25.8372 6 25.6364 6H17.2727ZM18.7273 10.5455V7.81818H24.1818V10.5455H18.7273Z" fill="#212A34"/>
</svg>
