<svg width="32" height="32" viewBox="0 0 32 32" fill="none" xmlns="http://www.w3.org/2000/svg">
<path d="M9 12C9.55228 12 10 11.5523 10 11C10 10.4477 9.55228 10 9 10C8.44772 10 8 10.4477 8 11C8 11.5523 8.44772 12 9 12Z" fill="#212A34"/>
<path d="M12.4 10C12.1791 10 12 10.1791 12 10.4V11.6C12 11.8209 12.1791 12 12.4 12H23.6C23.8209 12 24 11.8209 24 11.6V10.4C24 10.1791 23.8209 10 23.6 10H12.4Z" fill="#212A34"/>
<path d="M12.4 15C12.1791 15 12 15.1791 12 15.4V16.6C12 16.8209 12.1791 17 12.4 17H23.6C23.8209 17 24 16.8209 24 16.6V15.4C24 15.1791 23.8209 15 23.6 15H12.4Z" fill="#212A34"/>
<path d="M12 20.4C12 20.1791 12.1791 20 12.4 20H23.6C23.8209 20 24 20.1791 24 20.4V21.6C24 21.8209 23.8209 22 23.6 22H12.4C12.1791 22 12 21.8209 12 21.6V20.4Z" fill="#212A34"/>
<path d="M10 16C10 16.5523 9.55228 17 9 17C8.44772 17 8 16.5523 8 16C8 15.4477 8.44772 15 9 15C9.55228 15 10 15.4477 10 16Z" fill="#212A34"/>
<path d="M9 22C9.55228 22 10 21.5523 10 21C10 20.4477 9.55228 20 9 20C8.44772 20 8 20.4477 8 21C8 21.5523 8.44772 22 9 22Z" fill="#212A34"/>
</svg>
