<svg width="32" height="32" viewBox="0 0 32 32" fill="none" xmlns="http://www.w3.org/2000/svg">
<path fill-rule="evenodd" clip-rule="evenodd" d="M11.9939 10C11.9939 7.79086 13.7875 6 16 6C18.2125 6 20.0061 7.79086 20.0061 10V15C20.0061 17.2091 18.2125 19 16 19C13.7875 19 11.9939 17.2091 11.9939 15V10ZM18.003 10V15C18.003 16.1046 17.1062 17 16 17C14.8938 17 13.997 16.1046 13.997 15V10C13.997 8.89543 14.8938 8 16 8C17.1062 8 18.003 8.89543 18.003 10Z" fill="#212A34"/>
<path d="M11.0082 15.3999C10.9907 15.1797 10.813 15 10.5918 15H9.38996C9.16871 15 8.98816 15.1794 9.00061 15.4C9.18935 18.7451 11.7304 21.4624 14.9985 21.9291V24H13.396C13.1748 24 12.9954 24.1791 12.9954 24.4V25.6C12.9954 25.8209 13.1748 26 13.396 26H18.604C18.8252 26 19.0046 25.8209 19.0046 25.6V24.4C19.0046 24.1791 18.8252 24 18.604 24H17.0015V21.9291C20.2696 21.4624 22.8107 18.7451 22.9994 15.4C23.0118 15.1794 22.8313 15 22.61 15H21.4082C21.187 15 21.0093 15.1797 20.9918 15.3999C20.7878 17.9744 18.6308 20 16 20C13.3692 20 11.2122 17.9744 11.0082 15.3999Z" fill="#212A34"/>
</svg>
