<svg width="32" height="32" viewBox="0 0 32 32" fill="none" xmlns="http://www.w3.org/2000/svg">
<path d="M11.4 15C11.1791 15 11 15.1791 11 15.4V16.6C11 16.8209 11.1791 17 11.4 17H20.6C20.8209 17 21 16.8209 21 16.6V15.4C21 15.1791 20.8209 15 20.6 15H11.4Z" fill="#969CA4"/>
<path fill-rule="evenodd" clip-rule="evenodd" d="M26 16C26 21.5228 21.5228 26 16 26C10.4772 26 6 21.5228 6 16C6 10.4772 10.4772 6 16 6C21.5228 6 26 10.4772 26 16ZM24 16C24 20.4183 20.4183 24 16 24C11.5817 24 8 20.4183 8 16C8 11.5817 11.5817 8 16 8C20.4183 8 24 11.5817 24 16Z" fill="#969CA4"/>
</svg>
