<svg width="120" height="44" viewBox="0 0 120 44" fill="none" xmlns="http://www.w3.org/2000/svg">
<path d="M41.6305 24.813C41.6305 26.0934 41.6305 27.193 41.5616 27.7774C41.506 28.1809 41.4363 28.4875 41.1587 28.5433C40.9948 28.5792 40.8275 28.5975 40.6598 28.5977C40.4935 28.5977 40.4378 28.6403 40.4378 28.7102C40.4378 28.8072 40.5353 28.8513 40.7147 28.8513C40.9924 28.8513 41.3536 28.8241 41.6722 28.8241C42.0048 28.8072 42.3103 28.8072 42.4627 28.8072C42.8788 28.8072 43.3089 28.8241 43.9052 28.8513C44.5016 28.866 45.2642 28.8939 46.3045 28.8939C46.832 28.8939 46.9565 28.8939 47.054 28.5286C47.1504 28.0188 47.2106 27.5027 47.2342 26.9843C47.2342 26.8453 47.2342 26.7336 47.1228 26.7336C47.0261 26.7336 46.9983 26.7888 46.9704 26.9424C46.873 27.5135 46.7067 27.8053 46.3463 27.9729C45.9858 28.139 45.4034 28.139 45.0422 28.139C43.6276 28.139 43.4056 27.9303 43.3778 26.9711C43.3646 26.5668 43.3778 25.2871 43.3778 24.813V23.714C43.3778 23.631 43.3924 23.575 43.4614 23.575C43.7947 23.575 45.1676 23.589 45.4306 23.6169C45.9442 23.6721 46.1383 23.8808 46.2079 24.1594C46.2374 24.3251 46.2557 24.4926 46.2628 24.6607C46.2603 24.6778 46.2619 24.6952 46.2673 24.7115C46.2727 24.7279 46.2819 24.7427 46.2941 24.7549C46.3063 24.767 46.3211 24.7761 46.3375 24.7815C46.3538 24.7868 46.3711 24.7882 46.3881 24.7857C46.5127 24.7857 46.5127 24.632 46.5127 24.5218C46.5127 24.424 46.5544 23.8676 46.5683 23.589C46.624 22.8789 46.679 22.6562 46.679 22.5732C46.679 22.4893 46.6379 22.4622 46.5822 22.4622C46.5127 22.4622 46.457 22.5313 46.3603 22.643C46.2357 22.782 46.0269 22.8231 45.6943 22.851C45.3756 22.8789 43.7808 22.8789 43.4753 22.8789C43.3925 22.8789 43.3779 22.8231 43.3779 22.726V19.2051C43.3779 19.1073 43.4057 19.0661 43.4753 19.0661C43.7529 19.0661 45.2094 19.094 45.4445 19.1219C46.1383 19.205 46.2775 19.3726 46.3742 19.6225C46.4303 19.7836 46.4583 19.9532 46.457 20.1238C46.457 20.2488 46.4848 20.3186 46.5822 20.3186C46.679 20.3186 46.7068 20.2347 46.7208 20.1657C46.7487 19.9981 46.7765 19.3858 46.7904 19.2469C46.8121 18.9436 46.8491 18.6416 46.901 18.342C46.901 18.2729 46.8871 18.2171 46.8182 18.2171C46.7428 18.2291 46.6685 18.2478 46.5963 18.2729C46.3991 18.3113 46.2001 18.3391 45.9999 18.356C45.7362 18.37 42.9765 18.37 42.5325 18.37C42.3384 18.37 42.0189 18.356 41.6585 18.342C41.312 18.342 40.9098 18.3281 40.5354 18.3281C40.3267 18.3281 40.23 18.356 40.23 18.4538C40.23 18.5508 40.3136 18.5787 40.4658 18.5787C40.647 18.5753 40.828 18.5894 41.0065 18.6206C41.4644 18.7184 41.5751 18.9411 41.6028 19.4137C41.6307 19.8592 41.6307 20.2488 41.6307 22.3643L41.6305 24.813Z" fill="white"/>
<path d="M51.3712 24.5217C51.3155 24.5217 51.3016 24.4798 51.3155 24.424L52.5917 21.0016C52.6056 20.945 52.6334 20.8751 52.6753 20.8751C52.7163 20.8751 52.7302 20.945 52.7442 21.0016L53.9925 24.4379C54.0065 24.4798 53.9925 24.5218 53.9229 24.5218L51.3712 24.5217ZM54.1866 25.2178C54.2173 25.215 54.2479 25.2231 54.2733 25.2407C54.2986 25.2583 54.317 25.2843 54.3251 25.3141L55.435 28.2653C55.4502 28.2942 55.459 28.3259 55.4608 28.3585C55.4626 28.3911 55.4574 28.4237 55.4455 28.454C55.4336 28.4844 55.4153 28.5118 55.3919 28.5344C55.3685 28.5571 55.3405 28.5743 55.3098 28.5851C55.1712 28.5983 55.1163 28.627 55.1163 28.71C55.1163 28.807 55.2825 28.807 55.5316 28.824C56.6415 28.8511 57.654 28.8512 58.1536 28.8512C58.6664 28.8512 58.791 28.824 58.791 28.71C58.791 28.613 58.7221 28.5983 58.6108 28.5983C58.4153 28.5988 58.2202 28.5804 58.0283 28.5432C57.7375 28.4593 57.3353 28.2668 56.8078 27.0188C55.9199 24.9107 53.7009 19.2331 53.3683 18.468C53.2297 18.1482 53.1463 18.0225 53.0217 18.0225C52.8825 18.0225 52.7998 18.1761 52.6334 18.579L49.1521 27.3179C48.8745 28.0147 48.6107 28.4874 47.9704 28.5704C47.8277 28.5875 47.6842 28.5968 47.5405 28.5984C47.4298 28.5984 47.3741 28.6271 47.3741 28.7101C47.3741 28.824 47.4577 28.8512 47.6379 28.8512C48.3617 28.8512 49.1243 28.8093 49.2767 28.8093C49.7067 28.8093 50.303 28.8512 50.747 28.8512C50.8994 28.8512 50.9829 28.824 50.9829 28.7101C50.9829 28.627 50.9411 28.5984 50.7749 28.5984H50.5668C50.1368 28.5984 50.0122 28.4183 50.0122 28.1676C50.0349 27.875 50.1049 27.588 50.2195 27.3179L50.969 25.3289C50.9968 25.2443 51.0247 25.2179 51.0935 25.2179L54.1866 25.2178Z" fill="white"/>
<path d="M68.8093 26.3865C68.8093 25.6904 68.8093 25.1332 68.8232 24.7172C68.8371 24.2291 68.9756 23.9924 69.3499 23.9226C69.4733 23.898 69.5985 23.8842 69.7243 23.8814C69.8217 23.8814 69.9045 23.8535 69.9045 23.7697C69.9045 23.6587 69.8078 23.6307 69.6276 23.6307C69.1697 23.6307 68.4349 23.6726 68.0048 23.6726C67.588 23.6726 66.7149 23.6307 65.9931 23.6307C65.799 23.6307 65.7023 23.6586 65.7023 23.7697C65.7023 23.8536 65.7859 23.8814 65.9103 23.8814C66.0915 23.8778 66.2725 23.8916 66.451 23.9226C66.9089 24.0203 67.0334 24.2423 67.0473 24.7172C67.0613 25.1332 67.0613 25.6624 67.0613 26.3585V27.6662C67.0771 27.7688 67.0602 27.8739 67.013 27.9663C66.9657 28.0587 66.8906 28.1337 66.7982 28.1807C66.4189 28.3088 66.0182 28.3609 65.6188 28.3343C62.6928 28.3343 60.7924 26.0939 60.7924 23.1015C60.7924 21.3904 61.292 20.3458 62.0686 19.6932C63.0393 18.8855 64.0517 18.8303 64.8144 18.8303C66.3821 18.8303 67.4913 19.4698 67.9074 19.9153C68.1861 20.2385 68.3518 20.6443 68.3792 21.0708C68.3931 21.1818 68.4202 21.2516 68.5178 21.2516C68.6284 21.2516 68.6709 21.1818 68.6709 20.9583C68.6571 20.1968 68.6894 19.4351 68.7676 18.6775C68.7676 18.579 68.7398 18.5238 68.5735 18.5099C68.2053 18.4815 67.8393 18.4302 67.4775 18.3562C66.6657 18.2216 65.8452 18.1472 65.0225 18.1335C63.8577 18.1335 62.6233 18.2313 61.2921 19.0384C60.0298 19.8043 58.8782 21.3626 58.8782 23.5891C58.8782 27.4297 61.8885 29.046 65.2863 29.046C66.3684 29.046 67.7273 28.8939 68.6283 28.4183C68.7953 28.3206 68.8093 28.2934 68.8093 27.917V26.3865Z" fill="white"/>
<path d="M74.5551 22.3645C74.5551 20.249 74.5551 19.8595 74.5829 19.414C74.6107 18.9266 74.7215 18.6907 75.0957 18.6209C75.2749 18.5935 75.4559 18.5795 75.6371 18.579C75.8034 18.579 75.8862 18.5518 75.8862 18.454C75.8862 18.3562 75.7895 18.3283 75.5954 18.3283C75.054 18.3283 74.0415 18.3702 73.7089 18.3702C73.3346 18.3702 72.4606 18.3283 71.8085 18.3283C71.6005 18.3283 71.5038 18.3562 71.5038 18.454C71.5038 18.5517 71.5866 18.579 71.7397 18.579C71.8931 18.5757 72.0465 18.5897 72.1968 18.6209C72.6547 18.7186 72.7661 18.9413 72.7931 19.414C72.821 19.8594 72.821 20.249 72.821 22.3645V24.813C72.821 26.0934 72.821 27.193 72.7521 27.7774C72.6964 28.1809 72.6269 28.4875 72.3499 28.5433C72.1858 28.5792 72.0183 28.5975 71.8503 28.5977C71.684 28.5977 71.6283 28.6403 71.6283 28.7102C71.6283 28.8072 71.7257 28.8513 71.906 28.8513C72.1829 28.8513 72.5441 28.8241 72.8628 28.8241C73.1961 28.8072 73.5008 28.8072 73.6532 28.8072C74.2218 28.8072 74.7214 28.8241 75.3455 28.8513C75.9697 28.866 76.6913 28.8939 77.689 28.8939C78.4106 28.8939 78.4802 28.8241 78.563 28.5154C78.6716 27.9876 78.7411 27.4525 78.7711 26.9144C78.7711 26.7483 78.7572 26.6785 78.6604 26.6785C78.5491 26.6785 78.5213 26.7615 78.5081 26.8865C78.4638 27.1923 78.3391 27.4808 78.1469 27.7223C77.8004 28.0979 77.2597 28.1111 76.5242 28.1111C75.442 28.1111 75.0817 28.0148 74.8458 27.8053C74.5549 27.5554 74.5549 26.5947 74.5549 24.813L74.5551 22.3645Z" fill="white"/>
<path d="M81.3551 24.813C81.3551 26.0934 81.3551 27.193 81.2855 27.7774C81.2305 28.1809 81.161 28.4875 80.8833 28.5433C80.7194 28.5792 80.5521 28.5974 80.3844 28.5977C80.2181 28.5977 80.1624 28.6403 80.1624 28.7102C80.1624 28.8072 80.2591 28.8513 80.4393 28.8513C80.717 28.8513 81.0774 28.8241 81.3969 28.8241C81.7294 28.8072 82.035 28.8072 82.1873 28.8072C82.6034 28.8072 83.0335 28.8241 83.6298 28.8513C84.2262 28.866 84.9888 28.8939 86.0291 28.8939C86.5558 28.8939 86.6811 28.8939 86.7778 28.5286C86.8746 28.0188 86.9348 27.5027 86.958 26.9843C86.958 26.8453 86.958 26.7336 86.8474 26.7336C86.75 26.7336 86.7229 26.7888 86.695 26.9424C86.5976 27.5135 86.4313 27.8053 86.0708 27.9729C85.7104 28.139 85.1272 28.139 84.7668 28.139C83.3522 28.139 83.1302 27.9303 83.1023 26.9711C83.0884 26.5668 83.1023 25.2871 83.1023 24.813V23.714C83.1023 23.631 83.1163 23.575 83.186 23.575C83.5186 23.575 84.8922 23.589 85.1552 23.6169C85.6688 23.6721 85.8629 23.8808 85.9325 24.1594C85.962 24.3251 85.9803 24.4926 85.9874 24.6607C85.9849 24.6778 85.9865 24.6952 85.9919 24.7115C85.9973 24.7279 86.0065 24.7427 86.0187 24.7549C86.0309 24.767 86.0457 24.7761 86.062 24.7815C86.0784 24.7868 86.0957 24.7882 86.1127 24.7857C86.2373 24.7857 86.2372 24.632 86.2372 24.5218C86.2372 24.424 86.279 23.8676 86.2929 23.589C86.3479 22.8789 86.4035 22.6562 86.4035 22.5732C86.4035 22.4893 86.3618 22.4622 86.3068 22.4622C86.2373 22.4622 86.1816 22.5313 86.0849 22.643C85.9596 22.782 85.7515 22.8231 85.4189 22.851C85.1002 22.8789 83.5046 22.8789 83.1999 22.8789C83.1163 22.8789 83.1024 22.8231 83.1024 22.726V19.2051C83.1024 19.1073 83.1303 19.0661 83.1999 19.0661C83.4768 19.0661 84.934 19.094 85.1691 19.1219C85.8629 19.205 86.0014 19.3726 86.0988 19.6225C86.1545 19.7837 86.1825 19.9532 86.1816 20.1238C86.1816 20.2488 86.2094 20.3186 86.3068 20.3186C86.4035 20.3186 86.4314 20.2347 86.4454 20.1657C86.4733 19.9981 86.5011 19.3858 86.5143 19.2469C86.536 18.9436 86.5731 18.6415 86.6256 18.342C86.6256 18.2729 86.6117 18.2171 86.5428 18.2171C86.4673 18.229 86.393 18.2477 86.3209 18.2729C86.1237 18.3113 85.9246 18.3391 85.7245 18.356C85.4608 18.37 82.7004 18.37 82.2571 18.37C82.063 18.37 81.7435 18.356 81.3831 18.342C81.0359 18.342 80.6344 18.3281 80.2593 18.3281C80.0513 18.3281 79.9546 18.356 79.9546 18.4538C79.9546 18.5508 80.0373 18.5787 80.1905 18.5787C80.3716 18.5753 80.5526 18.5894 80.7311 18.6206C81.189 18.7184 81.2997 18.9411 81.3274 19.4137C81.3553 19.8592 81.3553 20.2488 81.3553 22.3643L81.3551 24.813Z" fill="white"/>
<path d="M94.4242 24.813C94.4242 26.0934 94.4242 27.193 94.3546 27.7774C94.2989 28.1809 94.2301 28.4875 93.9524 28.5433C93.7883 28.5792 93.6208 28.5975 93.4528 28.5977C93.2865 28.5977 93.2315 28.6403 93.2315 28.7102C93.2315 28.8072 93.3282 28.8513 93.5085 28.8513C93.7861 28.8513 94.1466 28.8241 94.4652 28.8241C94.7986 28.8072 95.1033 28.8072 95.2564 28.8072C95.6726 28.8072 96.1026 28.8241 96.6989 28.8513C97.2953 28.866 98.0579 28.8939 99.0982 28.8939C99.625 28.8939 99.7502 28.8939 99.8469 28.5286C99.9437 28.0188 100.004 27.5027 100.027 26.9843C100.027 26.8453 100.027 26.7336 99.9165 26.7336C99.8198 26.7336 99.7913 26.7888 99.7642 26.9424C99.6667 27.5135 99.5004 27.8053 99.14 27.9729C98.7795 28.139 98.1964 28.139 97.836 28.139C96.4213 28.139 96.1993 27.9303 96.1715 26.9711C96.1575 26.5668 96.1715 25.2871 96.1715 24.813V23.714C96.1715 23.631 96.1854 23.575 96.2551 23.575C96.5877 23.575 97.9613 23.589 98.2243 23.6169C98.7371 23.6721 98.932 23.8808 99.0016 24.1594C99.0311 24.3251 99.0494 24.4926 99.0565 24.6607C99.054 24.6777 99.0555 24.695 99.0609 24.7114C99.0663 24.7277 99.0754 24.7425 99.0875 24.7546C99.0996 24.7668 99.1144 24.7759 99.1306 24.7813C99.1469 24.7867 99.1642 24.7882 99.1811 24.7857C99.3064 24.7857 99.3064 24.632 99.3064 24.5218C99.3064 24.424 99.3474 23.8676 99.3621 23.589C99.417 22.8789 99.4727 22.6562 99.4727 22.5732C99.4727 22.4893 99.4309 22.4622 99.376 22.4622C99.3064 22.4622 99.2507 22.5313 99.154 22.643C99.0287 22.782 98.8207 22.8231 98.4881 22.851C98.1686 22.8789 96.5738 22.8789 96.269 22.8789C96.1854 22.8789 96.1716 22.8231 96.1716 22.726V19.2051C96.1716 19.1073 96.1994 19.0661 96.269 19.0661C96.5459 19.0661 98.0023 19.094 98.2382 19.1219C98.932 19.205 99.0705 19.3726 99.1679 19.6225C99.2237 19.7837 99.2517 19.9532 99.2507 20.1238C99.2507 20.2488 99.2785 20.3186 99.376 20.3186C99.4727 20.3186 99.5005 20.2347 99.5145 20.1657C99.5424 19.9981 99.5695 19.3858 99.5841 19.2469C99.6054 18.9435 99.6423 18.6415 99.6948 18.342C99.6948 18.2729 99.6808 18.2171 99.612 18.2171C99.5365 18.229 99.4622 18.2477 99.39 18.2729C99.1926 18.3114 98.9933 18.3391 98.7929 18.356C98.5299 18.37 95.7694 18.37 95.3255 18.37C95.1314 18.37 94.8127 18.356 94.4522 18.342C94.105 18.342 93.7028 18.3281 93.3284 18.3281C93.1204 18.3281 93.0237 18.356 93.0237 18.4538C93.0237 18.5508 93.1065 18.5787 93.2588 18.5787C93.4402 18.5753 93.6215 18.5894 93.8002 18.6206C94.2581 18.7184 94.3688 18.9411 94.3966 19.4137C94.4244 19.8592 94.4244 20.2488 94.4244 22.3643L94.4242 24.813Z" fill="white"/>
<path d="M105.052 26.3865C105.052 26.6092 105.052 27.1936 105.011 27.7779C104.983 28.1807 104.858 28.4872 104.58 28.5438C104.421 28.579 104.258 28.5972 104.095 28.5982C103.943 28.5982 103.873 28.6401 103.873 28.7099C103.873 28.8239 103.984 28.8518 104.179 28.8518C104.692 28.8518 105.566 28.8092 105.912 28.8092C106.287 28.8092 107.16 28.8518 108.035 28.8518C108.215 28.8518 108.325 28.807 108.325 28.7099C108.325 28.6401 108.256 28.5982 108.103 28.5982C107.871 28.5933 107.64 28.5751 107.41 28.5438C106.994 28.4872 106.869 28.1807 106.841 27.7779C106.799 27.1936 106.799 26.6092 106.799 26.3865V25.2442C106.769 24.771 106.84 24.2967 107.008 23.8535C107.257 23.2552 109.199 19.985 109.657 19.4278C109.847 19.1416 110.104 18.9072 110.406 18.7456C110.595 18.6473 110.803 18.5904 111.016 18.5788C111.169 18.5788 111.279 18.5369 111.279 18.4398C111.279 18.3559 111.182 18.328 111.03 18.328C110.766 18.328 109.851 18.3707 109.546 18.3707C109.144 18.3707 108.7 18.328 108.242 18.328C108.076 18.328 108.006 18.356 108.006 18.4537C108.006 18.5368 108.131 18.5647 108.256 18.5927C108.34 18.6031 108.416 18.6449 108.47 18.7095C108.524 18.7742 108.552 18.857 108.547 18.9412C108.533 19.1932 108.467 19.4395 108.353 19.6644C108.159 20.0959 106.411 23.1574 106.272 23.4918C106.05 23.1015 104.109 19.7482 103.915 19.3307C103.829 19.1855 103.772 19.0246 103.749 18.8574C103.747 18.7995 103.766 18.743 103.801 18.6973C103.837 18.6517 103.887 18.6197 103.943 18.6067C104.151 18.5516 104.248 18.5369 104.248 18.4538C104.248 18.3707 104.179 18.3281 104.039 18.3281C103.415 18.3281 102.847 18.3708 102.556 18.3708C102.098 18.3708 101.056 18.3281 100.806 18.3281C100.639 18.3281 100.542 18.3708 100.542 18.4538C100.542 18.5516 100.639 18.5788 100.75 18.5788C100.956 18.5963 101.156 18.6582 101.335 18.7603C101.721 19.0292 102.046 19.375 102.292 19.7762C102.778 20.4995 104.636 23.5609 104.733 23.7837C104.962 24.2351 105.072 24.7381 105.052 25.2443L105.052 26.3865Z" fill="white"/>
<path d="M112.934 24.813C112.934 26.0934 112.934 27.193 112.864 27.7774C112.81 28.1809 112.74 28.4875 112.462 28.5433C112.298 28.5792 112.131 28.5974 111.963 28.5977C111.797 28.5977 111.741 28.6403 111.741 28.7102C111.741 28.8072 111.838 28.8513 112.018 28.8513C112.296 28.8513 112.656 28.8241 112.976 28.8241C113.308 28.8072 113.614 28.8072 113.766 28.8072C114.182 28.8072 114.612 28.8241 115.208 28.8513C115.805 28.866 116.568 28.8939 117.608 28.8939C118.136 28.8939 118.26 28.8939 118.357 28.5286C118.454 28.0188 118.514 27.5027 118.537 26.9843C118.537 26.8453 118.537 26.7336 118.426 26.7336C118.329 26.7336 118.301 26.7888 118.274 26.9424C118.177 27.5135 118.01 27.8053 117.65 27.9729C117.289 28.139 116.706 28.139 116.346 28.139C114.931 28.139 114.709 27.9303 114.681 26.9711C114.667 26.5668 114.681 25.2871 114.681 24.813V23.714C114.681 23.631 114.695 23.575 114.765 23.575C115.098 23.575 116.47 23.589 116.734 23.6169C117.248 23.6721 117.442 23.8808 117.511 24.1594C117.541 24.325 117.559 24.4925 117.566 24.6607C117.564 24.6778 117.565 24.6952 117.571 24.7115C117.576 24.7278 117.586 24.7427 117.598 24.7548C117.61 24.767 117.625 24.7761 117.641 24.7815C117.657 24.7868 117.675 24.7882 117.692 24.7857C117.816 24.7857 117.816 24.632 117.816 24.5218C117.816 24.424 117.858 23.8676 117.872 23.589C117.927 22.8789 117.983 22.6562 117.983 22.5732C117.983 22.4893 117.941 22.4622 117.886 22.4622C117.816 22.4622 117.761 22.5313 117.664 22.643C117.539 22.782 117.331 22.8231 116.998 22.851C116.679 22.8789 115.084 22.8789 114.779 22.8789C114.695 22.8789 114.681 22.8231 114.681 22.726V19.2051C114.681 19.1073 114.709 19.0661 114.779 19.0661C115.056 19.0661 116.513 19.094 116.748 19.1219C117.442 19.205 117.58 19.3726 117.678 19.6225C117.734 19.7837 117.762 19.9532 117.761 20.1238C117.761 20.2488 117.788 20.3186 117.886 20.3186C117.983 20.3186 118.01 20.2347 118.024 20.1657C118.052 19.9981 118.08 19.3858 118.093 19.2469C118.136 18.6066 118.205 18.4398 118.205 18.342C118.205 18.2729 118.191 18.2171 118.122 18.2171C118.046 18.229 117.972 18.2477 117.9 18.2729C117.702 18.3114 117.503 18.3391 117.303 18.356C117.04 18.37 114.279 18.37 113.835 18.37C113.642 18.37 113.323 18.356 112.962 18.342C112.615 18.342 112.213 18.3281 111.838 18.3281C111.63 18.3281 111.534 18.356 111.534 18.4538C111.534 18.5508 111.616 18.5787 111.769 18.5787C111.951 18.5754 112.132 18.5894 112.31 18.6206C112.768 18.7184 112.879 18.9411 112.906 19.4137C112.934 19.8592 112.934 20.2488 112.934 22.3643L112.934 24.813Z" fill="white"/>
<path d="M50.8444 33.8367H50.8722C51.0407 34.0124 52.0803 35.1664 53.1015 36.1631C54.0751 37.1143 55.2737 38.3242 55.8642 38.8777C55.9667 38.9813 56.0795 39.0827 56.1821 39.0827C56.2664 39.0827 56.3037 38.9988 56.3037 38.7946L56.407 32.9686C56.4158 32.4519 56.4913 32.2578 56.7535 32.1843C56.8454 32.1627 56.9398 32.1535 57.0341 32.1571C57.147 32.1571 57.2034 32.1291 57.2034 32.0732C57.2034 31.9997 57.1096 31.9902 56.9872 31.9902C56.5286 31.9902 56.1726 32.0181 56.0699 32.0181C55.8736 32.0181 55.4238 31.9902 54.9366 31.9902C54.7959 31.9902 54.6934 31.9998 54.6934 32.0732C54.6934 32.1291 54.7307 32.1571 54.8428 32.1571C55.0103 32.1486 55.178 32.1672 55.3395 32.2122C55.5644 32.3048 55.6479 32.4798 55.6575 33.0421L55.7512 37.1885H55.7043C55.5454 37.04 54.2809 35.7111 53.6443 35.0833C52.2772 33.7448 50.8538 32.2387 50.741 32.1196C50.582 31.9528 50.4977 31.8337 50.3944 31.8337C50.3014 31.8337 50.2728 31.9623 50.2728 32.1477L50.1887 37.6134C50.1799 38.416 50.1425 38.6843 49.8986 38.7571C49.7607 38.7907 49.6192 38.8065 49.4773 38.8041C49.3835 38.8041 49.3271 38.8225 49.3271 38.8777C49.3271 38.9622 49.4114 38.9717 49.533 38.9717C50.0202 38.9717 50.4605 38.9438 50.5447 38.9438C50.7227 38.9438 51.0971 38.9717 51.7059 38.9717C51.837 38.9717 51.9213 38.9534 51.9213 38.8777C51.9213 38.8225 51.8649 38.8041 51.7623 38.8041C51.5975 38.8092 51.4329 38.7874 51.2751 38.7394C51.0876 38.6747 50.966 38.4344 50.9477 37.7141L50.8444 33.8367Z" fill="white"/>
<path d="M59.2915 36.2931C59.2915 37.142 59.2915 37.8705 59.2446 38.2593C59.2073 38.5269 59.1604 38.7298 58.9728 38.7665C58.8622 38.7917 58.7492 38.8043 58.6358 38.804C58.523 38.804 58.4856 38.8319 58.4856 38.8783C58.4856 38.9423 58.5516 38.9724 58.6732 38.9724C58.8607 38.9724 59.104 38.9532 59.3193 38.9532C59.5443 38.9422 59.7501 38.9422 59.8534 38.9422C60.134 38.9422 60.4248 38.9532 60.827 38.9724C61.23 38.9812 61.745 38.9995 62.4468 38.9995C62.8028 38.9995 62.8871 38.9995 62.953 38.7577C63.0183 38.4196 63.0589 38.0771 63.0747 37.7331C63.0747 37.6404 63.0747 37.5669 62.9999 37.5669C62.934 37.5669 62.9157 37.6037 62.8966 37.7051C62.8314 38.0844 62.7186 38.2777 62.4754 38.3887C62.1911 38.4795 61.8926 38.5168 61.5948 38.499C60.6395 38.499 60.49 38.3608 60.471 37.7235C60.4614 37.4559 60.471 36.607 60.471 36.2931V35.5632C60.471 35.5088 60.4806 35.4713 60.5274 35.4713C60.7523 35.4713 61.6791 35.4801 61.8571 35.4992C62.2036 35.536 62.3349 35.6735 62.3816 35.858C62.4023 35.9679 62.4148 36.0792 62.419 36.1909C62.4174 36.2024 62.4184 36.2141 62.4221 36.225C62.4258 36.236 62.432 36.2459 62.4401 36.2541C62.4483 36.2622 62.4583 36.2683 62.4692 36.2719C62.4802 36.2755 62.4918 36.2765 62.5032 36.2748C62.5875 36.2748 62.5875 36.1726 62.5875 36.0992C62.5875 36.0337 62.6161 35.6647 62.6257 35.4802C62.6631 35.0098 62.7004 34.8621 62.7004 34.8069C62.7004 34.7511 62.6726 34.7326 62.6345 34.7326C62.5876 34.7326 62.5502 34.7782 62.485 34.8532C62.3568 34.9525 62.1969 35.0016 62.0352 34.9914C61.8198 35.0098 60.7428 35.0098 60.5371 35.0098C60.4806 35.0098 60.4711 34.9723 60.4711 34.9076V32.5723C60.4711 32.5076 60.4902 32.4805 60.5371 32.4805C60.7239 32.4805 61.7077 32.4988 61.8667 32.5164C62.3349 32.5723 62.4286 32.6833 62.4938 32.8487C62.5318 32.9558 62.5509 33.0687 62.5502 33.1824C62.5502 33.2647 62.5693 33.3103 62.6345 33.3103C62.7004 33.3103 62.7187 33.2551 62.7282 33.2088C62.7474 33.0986 62.7656 32.6928 62.7751 32.6002C62.7895 32.3989 62.8145 32.1984 62.8499 31.9997C62.8499 31.9534 62.8403 31.9166 62.7942 31.9166C62.7432 31.9247 62.693 31.937 62.644 31.9534C62.5108 31.9789 62.3763 31.9973 62.2411 32.0085C62.0631 32.0188 60.2001 32.0188 59.9004 32.0188C59.7693 32.0188 59.5539 32.0085 59.3107 31.9996C59.0762 31.9996 58.8044 31.99 58.5517 31.99C58.411 31.99 58.3451 32.0084 58.3451 32.0731C58.3451 32.1385 58.4015 32.157 58.5048 32.157C58.627 32.1547 58.7491 32.1638 58.8696 32.1842C59.1788 32.2489 59.2542 32.3966 59.2726 32.7112C59.2917 33.006 59.2917 33.2647 59.2917 34.6679L59.2915 36.2931Z" fill="white"/>
<path d="M66.4553 36.2931C66.4553 37.142 66.4553 37.8705 66.4084 38.2593C66.3805 38.5269 66.3241 38.7298 66.1366 38.7665C66.026 38.7917 65.913 38.8043 65.7996 38.804C65.6875 38.804 65.6501 38.8319 65.6501 38.8783C65.6501 38.9423 65.7153 38.9724 65.8369 38.9724C66.212 38.9724 66.8018 38.9436 67.017 38.9436C67.2793 38.9436 67.8691 38.9724 68.4874 38.9724C68.5899 38.9724 68.6654 38.9423 68.6654 38.8783C68.6654 38.832 68.6185 38.804 68.5152 38.804C68.3553 38.8014 68.1958 38.7889 68.0374 38.7665C67.7569 38.7298 67.7004 38.5268 67.6726 38.2689C67.6257 37.8705 67.6257 37.142 67.6257 36.2931V32.5076L68.8052 32.5355C69.6389 32.5532 69.8917 32.8119 69.9107 33.0523L69.9203 33.1537C69.929 33.2919 69.9481 33.3382 70.0228 33.3382C70.0792 33.3382 70.0976 33.2831 70.1071 33.1905C70.1071 32.9508 70.1357 32.3136 70.1357 32.1195C70.1357 31.9814 70.1262 31.927 70.061 31.927C69.9757 31.937 69.8911 31.952 69.8075 31.9718C69.5935 32.0029 69.3776 32.0187 69.1614 32.0189H65.4538C65.1439 32.0189 64.7886 31.9997 64.5168 31.9718C64.3792 31.9478 64.2443 31.9107 64.1138 31.8608C64.0582 31.8608 64.0296 31.9167 64.0018 32.0365C63.9826 32.1108 63.8054 32.9509 63.8054 33.0986C63.8054 33.2001 63.8237 33.2456 63.889 33.2456C63.9455 33.2456 63.974 33.2089 63.9923 33.1347C64.0277 33.0192 64.0814 32.9103 64.1513 32.812C64.292 32.6091 64.5168 32.5627 65.0597 32.5437L66.4554 32.5077L66.4553 36.2931Z" fill="white"/>
<path d="M73.0106 38.7574C73.0948 38.9992 73.1322 39.1014 73.226 39.1014C73.3381 39.1014 73.3849 38.9904 73.563 38.6104C73.9659 37.7614 75.2113 34.4919 75.3894 34.0215H75.4077L77.3557 38.6479C77.4963 38.9904 77.5527 39.1014 77.6458 39.1014C77.7674 39.1014 77.815 38.9904 77.9176 38.6655C78.3762 37.2807 79.3601 34.3449 79.7908 33.1821C79.9872 32.6543 80.0905 32.2853 80.3147 32.203C80.4209 32.1701 80.5317 32.1548 80.6429 32.1574C80.7271 32.1574 80.774 32.1287 80.774 32.0648C80.774 32.0082 80.7088 31.9905 80.6055 31.9905C80.2963 31.9905 79.8934 32.0184 79.8282 32.0184C79.7439 32.0184 79.3504 31.9905 78.8538 31.9905C78.7139 31.9905 78.6384 32.0081 78.6384 32.0728C78.6384 32.1287 78.7044 32.1574 78.7982 32.1574C79.163 32.1574 79.2473 32.2853 79.2473 32.433C79.2415 32.6152 79.2099 32.7956 79.1535 32.9688C78.826 34.0494 78.0766 36.4868 77.9081 37.105H77.8802L75.9322 32.4522C75.8106 32.1574 75.7637 32.0185 75.6604 32.0185C75.5857 32.0185 75.5205 32.0921 75.4267 32.35L73.6099 37.1668H73.582C73.4135 36.6501 72.5424 33.8474 72.3835 33.238C72.2933 32.9634 72.2243 32.6823 72.1769 32.3971C72.1769 32.2949 72.196 32.231 72.2802 32.1934C72.3545 32.1632 72.4348 32.1509 72.5146 32.1574C72.6077 32.1574 72.6824 32.1478 72.6824 32.0729C72.6824 32.0185 72.6172 31.9905 72.4861 31.9905C71.9432 31.9905 71.5307 32.0185 71.4465 32.0185C71.3622 32.0185 70.8472 31.9905 70.36 31.9905C70.2274 31.9905 70.1527 32.0082 70.1527 32.0729C70.1527 32.1479 70.2091 32.1574 70.3022 32.1574C70.4323 32.1552 70.5611 32.1831 70.6787 32.2389C70.8533 32.4204 70.9734 32.6477 71.0252 32.8946L73.0106 38.7574Z" fill="white"/>
<path d="M85.1661 38.6381C83.3675 38.6381 82.2913 37.1143 82.2913 35.1944C82.2913 32.8952 83.5177 32.3049 84.5947 32.3049C86.1302 32.3049 87.3383 33.5876 87.3383 35.656C87.3383 38.3242 85.821 38.6381 85.1661 38.6381ZM84.7727 39.1012C87.1515 39.1012 88.6496 37.4282 88.6496 35.315C88.6496 33.2002 87.1983 31.8602 84.8665 31.8602C82.0569 31.8602 80.999 33.9015 80.999 35.4796C80.999 37.1142 82.0848 39.1012 84.7727 39.1012Z" fill="white"/>
<path d="M91.7116 32.5906C91.7116 32.5163 91.7307 32.4804 91.7959 32.4612C91.9593 32.4287 92.1261 32.4161 92.2926 32.4237C92.8449 32.4237 93.7255 32.8023 93.7255 34.1135C93.7255 34.8699 93.4537 35.2955 93.1724 35.4991C92.9779 35.6321 92.7411 35.6879 92.5079 35.6556C92.2674 35.6592 92.0276 35.628 91.7959 35.563C91.7306 35.5358 91.7116 35.4991 91.7116 35.3969V32.5906ZM90.6068 36.2931C90.6068 37.142 90.6068 37.8705 90.56 38.2593C90.5226 38.5269 90.4757 38.7298 90.2881 38.7665C90.1776 38.7917 90.0645 38.8043 89.9512 38.804C89.8391 38.804 89.8017 38.8319 89.8017 38.8783C89.8017 38.9423 89.8669 38.9724 89.9885 38.9724C90.3629 38.9724 90.9534 38.9436 91.1314 38.9436C91.2713 38.9436 91.9651 38.9724 92.5079 38.9724C92.6296 38.9724 92.6947 38.9423 92.6947 38.8783C92.6947 38.832 92.6581 38.804 92.5827 38.804C92.4292 38.7999 92.2761 38.7874 92.124 38.7665C91.8427 38.7298 91.787 38.5268 91.7585 38.2593C91.7116 37.8705 91.7116 37.142 91.7116 36.2835V36.1541C91.7116 36.099 91.7403 36.0806 91.7871 36.0806L92.6017 36.099C92.6328 36.0955 92.6643 36.0994 92.6936 36.1106C92.7229 36.1217 92.7491 36.1396 92.7702 36.1629C92.8918 36.3025 93.3226 36.9288 93.6969 37.4375C94.2215 38.1483 94.5775 38.5819 94.9797 38.7944C95.2918 38.9428 95.638 39.0043 95.9819 38.9723H96.8722C96.9842 38.9723 97.0494 38.9531 97.0494 38.8782C97.0494 38.8319 97.0121 38.8039 96.9373 38.8039C96.8493 38.8022 96.7615 38.7929 96.6751 38.7759C96.5344 38.7487 96.1505 38.684 95.6267 38.1482C95.0736 37.5756 94.4275 36.7545 93.5945 35.7203C94.5403 34.9625 94.8304 34.3355 94.8304 33.6518C94.8287 33.4061 94.7704 33.1641 94.6599 32.9448C94.5495 32.7254 94.3899 32.5347 94.1938 32.3876C93.6875 32.0458 93.0604 31.9899 92.4707 31.9899C92.1798 31.9899 91.4685 32.0187 91.1498 32.0187C90.9534 32.0187 90.363 31.9899 89.867 31.9899C89.7263 31.9899 89.6611 32.0083 89.6611 32.073C89.6611 32.1384 89.7175 32.1569 89.8201 32.1569C89.9425 32.1545 90.0648 32.1636 90.1856 32.1841C90.494 32.2488 90.5695 32.3965 90.5878 32.7111C90.6069 33.0059 90.6069 33.2646 90.6069 34.6678L90.6068 36.2931Z" fill="white"/>
<path d="M98.8197 34.6679C98.8197 33.2648 98.8197 33.006 98.8388 32.7113C98.8571 32.3871 98.9319 32.2313 99.1846 32.1842C99.271 32.1671 99.3588 32.158 99.4469 32.157C99.5216 32.157 99.578 32.1387 99.578 32.0731C99.578 32.0084 99.5128 31.9901 99.3817 31.9901C99.063 31.9901 98.4732 32.0189 98.2483 32.0189C98.0241 32.0189 97.4337 31.9901 96.9377 31.9901C96.797 31.9901 96.7318 32.0084 96.7318 32.0731C96.7318 32.1386 96.7875 32.157 96.8908 32.157C97.013 32.1547 97.1351 32.1638 97.2556 32.1842C97.5648 32.2489 97.6395 32.3967 97.6586 32.7113C97.6769 33.0061 97.6769 33.2648 97.6769 34.6679V36.2932C97.6769 37.1421 97.6769 37.8706 97.63 38.2594C97.5934 38.5269 97.5464 38.7298 97.3589 38.7666C97.2481 38.7918 97.1348 38.8044 97.0212 38.8041C96.9091 38.8041 96.8718 38.832 96.8718 38.8784C96.8718 38.9423 96.9377 38.9717 97.0586 38.9717C97.4336 38.9717 98.0241 38.9438 98.2395 38.9438C98.4732 38.9438 99.063 38.9717 99.5875 38.9717C99.6908 38.9717 99.7655 38.9423 99.7655 38.8784C99.7655 38.8321 99.7187 38.8041 99.6439 38.8041C99.4902 38.8007 99.3368 38.7882 99.1846 38.7666C98.9509 38.7298 98.8659 38.5269 98.8483 38.2682C98.8198 37.8706 98.8198 37.1421 98.8198 36.2932V35.4523H98.8659L98.9692 35.5913C99.1663 35.8582 101.011 37.9913 101.423 38.3522C101.826 38.7028 102.078 38.9064 102.584 38.9534C102.781 38.9718 102.949 38.9718 103.231 38.9718H104.045C104.223 38.9718 104.27 38.9424 104.27 38.8784C104.27 38.8226 104.214 38.8041 104.148 38.8041C103.947 38.7936 103.751 38.7465 103.567 38.6651C103.061 38.471 102.64 38.0558 102.228 37.6684C101.863 37.3266 100.028 35.3787 99.6908 34.945C100.009 34.6121 101.423 33.2272 101.713 32.9509C101.999 32.6526 102.344 32.4166 102.724 32.2577C102.9 32.1975 103.083 32.1635 103.268 32.1571C103.361 32.1571 103.408 32.1387 103.408 32.0732C103.408 32.0084 103.343 31.9901 103.249 31.9901C102.959 31.9901 102.444 32.0189 102.154 32.0189C101.901 32.0189 101.385 31.9901 101.189 31.9901C101.086 31.9901 101.039 32.0085 101.039 32.0732C101.039 32.129 101.077 32.1475 101.161 32.1658C101.254 32.1842 101.292 32.2488 101.292 32.3503C101.292 32.5076 101.086 32.7377 100.823 33.042C100.552 33.3566 99.1846 34.7326 98.8658 35.0737H98.8197L98.8197 34.6679Z" fill="white"/>
<path d="M105.768 39.1011C106.29 39.1199 106.807 38.988 107.257 38.7211C107.53 38.553 107.755 38.3164 107.909 38.0347C108.064 37.753 108.142 37.4357 108.137 37.1142C108.137 36.2373 107.735 35.6001 106.602 34.7605L106.34 34.5664C105.562 33.9842 105.347 33.6615 105.347 33.2359C105.347 32.6832 105.768 32.2855 106.461 32.2855C106.655 32.2717 106.85 32.3056 107.028 32.3844C107.206 32.4632 107.362 32.5844 107.482 32.7376C107.623 32.9115 107.708 33.1239 107.726 33.3469C107.726 33.4579 107.753 33.513 107.819 33.513C107.894 33.513 107.922 33.4396 107.922 33.2359C107.922 32.5163 107.959 32.2488 107.959 32.129C107.959 32.0642 107.912 32.0363 107.828 32.018C107.422 31.9079 107.003 31.8548 106.583 31.8599C105.281 31.8599 104.419 32.5906 104.419 33.6048C104.419 34.3539 104.775 35 105.805 35.7938L106.236 36.126C107.014 36.7266 107.154 37.1514 107.154 37.6035C107.154 38.0923 106.742 38.6561 105.899 38.6561C105.603 38.6791 105.308 38.5988 105.064 38.4289C104.82 38.2589 104.642 38.0097 104.56 37.7233C104.512 37.5704 104.484 37.4121 104.476 37.2522C104.476 37.1786 104.466 37.0956 104.382 37.0956C104.307 37.0956 104.279 37.197 104.27 37.336C104.26 37.4837 104.223 38.0379 104.223 38.5451C104.223 38.7488 104.251 38.7944 104.401 38.8591C104.834 39.0366 105.3 39.1193 105.768 39.1011Z" fill="white"/>
<path d="M28.4122 22.4355C31.8401 23.6425 31.506 25.9697 28.4122 27.7374C28.4122 27.7374 33.6159 25.6602 35.4702 28.9193C35.4702 28.9193 36.5038 22.0776 28.4122 22.4355Z" fill="white"/>
<path d="M28.7072 26.9162C28.0178 26.5266 17.2815 20.3493 13.1445 11.941C13.1445 11.941 12.7679 20.7851 28.7064 26.9213L28.7072 26.9162Z" fill="white"/>
<path d="M1.57742 2.2002C1.57742 2.2002 6.34512 19.4106 31.0338 29.0654C31.0338 29.0654 24.6009 35.1862 15.9781 31.8844C21.5906 31.6778 24.5415 29.6991 24.5415 29.6991C18.8089 30.8707 12.5576 31.2654 8.60667 26.4715C15.5679 28.9125 22.773 29.5271 24.184 29.1631C15.7349 27.6658 6.30045 25.5783 3.23814 16.94C10.7503 23.6796 23.9906 28.4053 23.9906 28.4053C12.9693 22.2567 0.120202 16.0331 1.57742 2.2002Z" fill="white"/>
<path d="M23.9845 41.8002C23.9845 41.8002 25.0453 35.9507 34.5003 32.4305C34.5003 32.4305 31.6058 30.4371 28.3011 31.6433C30.5707 31.6521 31.8571 32.2872 31.8571 32.2872C29.4908 31.9542 26.9553 31.8888 25.6036 33.5463C28.2849 32.6503 31.1545 32.3644 31.7384 32.4717C28.4124 33.0664 24.7201 33.8727 23.9186 36.8166C26.6058 34.4637 31.6996 32.7289 31.6996 32.7289C27.5699 34.9201 22.709 37.1547 23.9845 41.8002Z" fill="white"/>
</svg>
